<?xml version="1.0" standalone="no"?>
<!DOCTYPE svg PUBLIC "-//W3C//DTD SVG 1.1//EN" "http://www.w3.org/Graphics/SVG/1.1/DTD/svg11.dtd" >
<svg xmlns="http://www.w3.org/2000/svg" xmlns:xlink="http://www.w3.org/1999/xlink" version="1.1">
<metadata>
Created by FontForge 20161003 at Sat Sep  9 11:38:02 2017
 By www-data
URW Software, Copyright 1994 by URW
</metadata>
<defs>
<font id="NimbusRomDGR-BoldItal" horiz-adv-x="512" >
  <font-face 
    font-family="NimbusRomDGR"
    font-weight="700"
    font-style="italic"
    font-stretch="normal"
    units-per-em="2048"
    panose-1="2 2 7 3 6 5 5 9 3 4"
    ascent="1639"
    descent="-409"
    x-height="865"
    cap-height="1365"
    bbox="-293 -418 2007 1711"
    underline-thickness="134"
    underline-position="-319"
    slope="160"
    unicode-range="U+0020-2122"
  />
<missing-glyph 
d="M51 0v1365h410v-1365h-410zM410 51v1263h-308v-1263h308z" />
    <glyph glyph-name=".notdef" 
d="M51 0v1365h410v-1365h-410zM410 51v1263h-308v-1263h308z" />
    <glyph glyph-name="glyph1" horiz-adv-x="0" 
 />
    <glyph glyph-name="glyph2" 
 />
    <glyph glyph-name="space" unicode=" " 
 />
    <glyph glyph-name="exclam" unicode="!" horiz-adv-x="617" 
d="M300 398h-51q45 153 122 607q36 218 79 295q45 79 118 79q46 0 73.5 -31.5t27.5 -83.5q0 -53 -21.5 -111.5t-93.5 -198.5q-117 -227 -169 -341t-85 -215zM197 293q62 0 106.5 -45.5t44.5 -107.5q0 -64 -45 -109t-109 -45t-108.5 45t-44.5 110q0 63 45.5 107.5t110.5 44.5
z" />
    <glyph glyph-name="quotedbl" unicode="&#x22;" horiz-adv-x="999" 
d="M314 778q12 115 26 292q13 170 60 234q61 82 153 82q44 0 74 -28.5t30 -71.5q0 -45 -23.5 -102t-132.5 -275q-13 -26 -62 -131h-125zM752 778q13 115 26 292q13 170 60 234q61 82 153 82q44 0 74 -28.5t30 -71.5q0 -45 -24 -102.5t-132 -274.5q-40 -88 -61 -131h-126z
" />
    <glyph glyph-name="numbersign" unicode="#" horiz-adv-x="969" 
d="M935 597l-34 -160h-180l-157 -437h-164l157 437h-166l-158 -437h-163l157 437h-179l34 160h202l72 198h-173l33 160h197l148 410h164l-148 -410h161l148 410h169l-148 -410h157l-34 -160h-180l-71 -198h156zM686 795h-166l-72 -198h167z" />
    <glyph glyph-name="dollar" unicode="$" horiz-adv-x="969" 
d="M128 387h40q2 -129 55 -215q27 -46 80.5 -73t115.5 -27q111 0 173 81q54 70 54 151q0 67 -30.5 117t-137.5 158q-99 100 -156 174q-94 123 -94 261q0 157 121 253q99 78 229 78q27 0 67 -3l46 164h114l-50 -175q126 -26 201 -70l-92 -279h-50q12 60 12 91q0 81 -50 140
q-61 72 -160 72q-105 0 -160 -83q-34 -50 -34 -113q0 -88 63 -167q35 -43 168 -180q119 -122 164 -202.5t45 -172.5q0 -163 -135 -267q-63 -49 -143 -78t-152 -29q-21 0 -59 3l-45 -164h-115l50 178q-69 15 -110.5 31t-110.5 56z" />
    <glyph glyph-name="percent" unicode="%" horiz-adv-x="1463" 
d="M1404 1335l-1084 -1335h-140l1086 1335h138zM603 1335q95 0 146 -65q41 -52 41 -130q0 -98 -52.5 -193.5t-139.5 -155.5q-98 -68 -192 -68q-82 0 -129 53q-51 58 -51 140q0 97 52.5 195t135.5 158q93 65 189 66zM589 1290q-75 5 -146 -178q-27 -71 -50.5 -157.5
t-23.5 -116.5q0 -28 17 -46.5t42 -18.5q41 0 81.5 50.5t69.5 138.5q69 205 69 247q0 34 -16.5 56.5t-42.5 24.5zM1170 601q95 0 147 -66q40 -51 40 -129q0 -98 -52.5 -194t-138.5 -156q-98 -68 -192 -68q-82 0 -129 53q-51 59 -51 140q0 98 52 196t136 157q93 66 188 67z
M1156 556q-75 5 -145 -178q-28 -72 -51 -158.5t-23 -116.5q0 -28 17 -46.5t42 -18.5q40 0 80.5 50.5t70.5 138.5q68 205 68 248q0 34 -16 56.5t-43 24.5z" />
    <glyph glyph-name="ampersand" unicode="&#x26;" horiz-adv-x="1420" 
d="M1219 185h49q-59 -105 -126 -152.5t-156 -47.5q-79 0 -135.5 28.5t-129.5 105.5q-203 -135 -373 -135q-130 0 -214 70q-102 85 -102 224q0 132 104.5 243t338.5 228q-11 90 -11 139q0 174 84 307q51 80 129 129q89 54 188 54q98 0 157 -58q60 -57 60 -144
q0 -110 -95.5 -211.5t-258.5 -165.5q67 -275 143 -431q56 60 80 112q34 71 34 118q0 58 -82 76l14 51h362l-15 -51q-87 -10 -182 -154q-90 -135 -168 -223q69 -87 114.5 -119.5t98.5 -32.5q57 0 92 40zM716 877q167 122 167 309q0 60 -22 89q-27 34 -63 34
q-44 0 -72.5 -66.5t-28.5 -170.5q0 -80 19 -195zM489 674q-180 -105 -180 -283q0 -114 69 -192q54 -60 143 -60q71 0 149 46q-126 223 -181 489z" />
    <glyph glyph-name="quotesingle" unicode="'" horiz-adv-x="561" 
d="M314 778q12 115 26 292q13 170 60 234q61 82 153 82q44 0 74 -28.5t30 -71.5q0 -45 -23.5 -102t-132.5 -275q-13 -26 -62 -131h-125z" />
    <glyph glyph-name="parenleft" unicode="(" horiz-adv-x="739" 
d="M366 -322l-11 -40q-86 113 -134 228q-96 234 -96 470q0 248 116 484q134 276 378 441q80 54 237 124l3 -45q-129 -80 -226 -215q-75 -104 -124.5 -216t-106.5 -309q-54 -185 -77 -314t-23 -247q0 -199 64 -361z" />
    <glyph glyph-name="parenright" unicode=")" horiz-adv-x="739" 
d="M417 1346l11 39q85 -111 133 -227q96 -234 96 -469q0 -249 -116 -486q-134 -275 -377 -440q-81 -54 -237 -125l-4 46q129 79 226 215q75 103 124.5 215.5t106.5 309.5q100 343 100 561q0 197 -63 361z" />
    <glyph glyph-name="asterisk" unicode="*" horiz-adv-x="969" 
d="M669 991q46 8 77 23t110 70q48 33 102 33q46 0 76.5 -31.5t30.5 -79.5q0 -49 -33.5 -78.5t-88.5 -29.5q-26 0 -43 4.5t-94 29.5q-47 16 -96 16q-13 0 -35 -2q23 -41 46 -64.5t101 -83.5q69 -53 69 -123q0 -42 -34 -73.5t-79 -31.5q-56 0 -89 51q-27 42 -27 95l1 87
q0 61 -28 124q-32 -34 -48 -64t-48 -122q-16 -47 -51.5 -77.5t-73.5 -30.5q-44 0 -77.5 33.5t-33.5 78.5q0 49 44 86q24 20 42 28t101 34q71 25 114 66q-42 20 -75.5 25.5t-130.5 8.5q-62 1 -104 35t-42 82q0 45 31.5 79t73.5 34q55 0 105 -49q11 -11 65 -88q47 -61 98 -88
q4 29 4 43q0 32 -5.5 57.5t-29.5 105.5q-8 27 -8 56q0 56 30 90.5t79 34.5q47 0 79 -30.5t32 -76.5q0 -37 -13.5 -64t-70.5 -103q-42 -61 -53 -120z" />
    <glyph glyph-name="plus" unicode="+" horiz-adv-x="969" 
d="M456 781v307h194v-307h308v-183h-308v-307h-194v307h-309v183h309z" />
    <glyph glyph-name="comma" unicode="," horiz-adv-x="590" 
d="M-49 -248l-19 51q94 32 144 69q69 51 69 100q0 25 -45 76q-52 58 -52 117q0 60 43.5 102t105.5 42q69 0 113 -49t44 -125q0 -138 -141 -253q-87 -71 -262 -130z" />
    <glyph glyph-name="hyphen" unicode="-" horiz-adv-x="449" 
d="M448 542l-53 -187h-396l54 187h395z" />
    <glyph glyph-name="period" unicode="." horiz-adv-x="590" 
d="M208 308q65 0 111.5 -47.5t46.5 -113.5q0 -72 -53 -120q-46 -41 -108 -41q-72 0 -120 53q-41 46 -41 109q0 67 47.5 113.5t116.5 46.5z" />
    <glyph glyph-name="slash" unicode="/" horiz-adv-x="976" 
d="M1051 1365l-1026 -1706h-175l1026 1706h175z" />
    <glyph glyph-name="zero" unicode="0" horiz-adv-x="969" 
d="M735 1372q135 0 203 -101q68 -99 68 -250q0 -191 -68 -404.5t-179 -370.5t-251 -217q-81 -35 -148 -35q-109 0 -174 85q-39 51 -62 126.5t-23 151.5q0 126 37 282.5t99 296.5q57 127 120 210t149 145q112 80 229 81zM734 1315q-61 0 -105 -53.5t-96 -189.5
q-112 -291 -183 -536t-71 -338q0 -66 27 -104.5t72 -38.5q62 0 113 73t119 259q49 135 112 329.5t79 260.5q33 134 33 209q0 59 -27 93.5t-73 35.5z" />
    <glyph glyph-name="one" unicode="1" horiz-adv-x="969" 
d="M929 1404l-354 -1233q-6 -21 -6 -40q0 -39 24.5 -62t63.5 -23l93 -1l-13 -45h-615l13 45l66 1q51 0 84.5 33t53.5 102l243 848q22 78 22 124q0 34 -25 57t-62 23q-35 0 -122 -22l-15 44z" />
    <glyph glyph-name="two" unicode="2" horiz-adv-x="969" 
d="M338 223h159q84 0 163 33.5t149 99.5h51l-153 -356h-607l-18 37l230 271q239 280 321 415.5t82 249.5q0 90 -51 150q-62 74 -154 74q-121 0 -207 -137l-42 21q57 147 146.5 223t207.5 76q149 0 237 -90q93 -97 93 -240q0 -150 -135 -334t-472 -493z" />
    <glyph glyph-name="three" unicode="3" horiz-adv-x="969" 
d="M639 819q90 -46 131 -119.5t41 -187.5q0 -158 -77 -294q-75 -132 -211 -189q-98 -42 -215 -42q-100 0 -164 34q-67 36 -67 96q0 40 28 67t69 27q40 0 71 -18.5t74 -68.5q50 -58 99 -58q26 0 58 16.5t51 39.5q32 41 53 112.5t21 142.5q0 90 -34.5 170t-93.5 126
q-39 31 -82 43.5t-116 15.5l12 44q17 -1 22 -1q126 0 236 64q72 42 115 117q39 69 39 132q0 66 -42 111.5t-103 45.5q-84 0 -161 -101l-34 27q85 118 153.5 163t162.5 45q121 0 191.5 -61t70.5 -165q0 -65 -25.5 -129.5t-68.5 -106.5q-33 -33 -76.5 -54t-127.5 -44z" />
    <glyph glyph-name="four" unicode="4" horiz-adv-x="969" 
d="M440 317h-362l47 219l724 860h133l-265 -923h171l-44 -156h-172l-90 -317h-233zM484 473l162 562l-470 -562h308z" />
    <glyph glyph-name="five" unicode="5" horiz-adv-x="969" 
d="M243 810l264 555h483l-60 -211h-440l-71 -145q86 -7 139.5 -25.5t112.5 -60.5q171 -122 171 -331q0 -141 -56 -270t-153 -209q-153 -127 -347 -127q-80 0 -127 30q-66 42 -66 103q0 38 27.5 66t64.5 28q28 0 46.5 -9.5t85.5 -59.5q76 -55 134 -55q67 0 117 71
q77 108 77 258q0 177 -105 287q-101 106 -260 106q-11 0 -37 -1z" />
    <glyph glyph-name="six" unicode="6" horiz-adv-x="969" 
d="M988 1403l-14 -48q-119 -35 -173 -66.5t-121 -104.5q-147 -163 -220 -350q82 38 158 38q131 0 212 -112q72 -101 72 -236q0 -146 -81 -291q-71 -127 -189 -196q-100 -58 -200 -58q-75 0 -144.5 33.5t-112.5 91.5q-85 114 -85 289q0 268 153 542q146 262 397 376
q130 59 348 92zM432 754q-137 -392 -137 -566q0 -62 28.5 -100t74.5 -38q103 0 161 120q43 91 73 216.5t30 218.5q0 75 -41.5 123.5t-105.5 48.5q-23 0 -40 -5q-41 -12 -43 -18z" />
    <glyph glyph-name="seven" unicode="7" horiz-adv-x="969" 
d="M899 1154h-302q-130 0 -195.5 -24.5t-100.5 -85.5h-47l165 332h710l-814 -1403l-82 47z" />
    <glyph glyph-name="eight" unicode="8" horiz-adv-x="969" 
d="M690 763q82 -107 115 -185.5t33 -165.5q0 -183 -126 -306q-120 -117 -294 -117q-140 0 -235 69q-53 40 -84.5 101t-31.5 127q0 78 33.5 158t91.5 141q44 45 92.5 72.5t140.5 57.5q-105 148 -105 291q0 73 30.5 152t76.5 124q93 92 252 92q137 0 225 -71q98 -79 98 -208
q0 -124 -76 -205t-236 -127zM454 669q-57 -33 -84 -70t-54 -121q-51 -156 -51 -263q0 -158 126 -158q87 0 140 80q65 99 65 222q0 100 -49 184q-21 34 -53 75zM653 813q41 15 65 41t47 80q17 41 30.5 109.5t13.5 116.5q0 68 -28.5 111t-73.5 43q-68 0 -107 -66t-39 -178
q0 -97 44 -181q8 -15 27.5 -46t20.5 -30z" />
    <glyph glyph-name="nine" unicode="9" horiz-adv-x="969" 
d="M109 -38l14 48q119 35 173 66t121 105q146 161 220 349q-81 -38 -158 -38q-131 0 -212 112q-72 101 -72 236q0 147 81 291q71 128 189 197q100 58 200 58q75 0 144.5 -34t112.5 -91q85 -114 85 -293q0 -265 -152 -538q-147 -263 -398 -376q-130 -59 -348 -92zM665 611
q137 393 137 566q0 62 -28.5 100t-74.5 38q-103 0 -161 -120q-43 -92 -73 -217t-30 -218q0 -76 41.5 -124.5t105.5 -48.5q23 0 40 5q41 13 43 19z" />
    <glyph glyph-name="colon" unicode=":" horiz-adv-x="590" 
d="M208 308q65 0 111.5 -47.5t46.5 -113.5q0 -72 -53 -120q-46 -41 -108 -41q-72 0 -120 53q-41 46 -41 109q0 67 47.5 113.5t116.5 46.5zM290 854q64 0 111 -47.5t47 -113.5q0 -72 -53 -120q-46 -41 -108 -41q-72 0 -120 53q-41 46 -41 109q0 67 47.5 113.5t116.5 46.5z
" />
    <glyph glyph-name="semicolon" unicode=";" horiz-adv-x="590" 
d="M-49 -248l-19 51q94 32 144 69q69 51 69 100q0 25 -45 76q-52 58 -52 117q0 60 43.5 102t105.5 42q69 0 113 -49t44 -125q0 -138 -141 -253q-87 -71 -262 -130zM290 854q68 0 117 -53q41 -46 41 -108q0 -72 -53 -120q-46 -41 -108 -41q-72 0 -120 53q-41 46 -41 109
q0 67 47.5 113.5t116.5 46.5z" />
    <glyph glyph-name="less" unicode="&#x3c;" horiz-adv-x="1024" 
d="M1007 1286v-115l-550 -351l550 -372v-303l-859 583v16z" />
    <glyph glyph-name="equal" unicode="=" horiz-adv-x="969" 
d="M958 949v-183h-811v183h811zM958 613v-183h-811v183h811z" />
    <glyph glyph-name="greater" unicode="&#x3e;" horiz-adv-x="1024" 
d="M148 145v114l550 351l-550 372v304l859 -584v-16z" />
    <glyph glyph-name="question" unicode="?" horiz-adv-x="833" 
d="M370 390h-51q0 56 8 96q16 68 42 113.5t134 195.5q172 238 172 379q0 80 -32 126.5t-87 46.5q-20 0 -36.5 -13.5t-16.5 -29.5q0 -18 23 -53q43 -66 43 -127q0 -55 -36.5 -94.5t-87.5 -39.5q-57 0 -94.5 44.5t-37.5 111.5q0 107 91 176q86 65 196 65q57 0 117 -21.5
t99 -55.5q85 -75 85 -193q0 -105 -77 -215q-35 -50 -74.5 -87.5t-125.5 -102.5q-150 -113 -199 -175t-55 -147zM345 291q61 0 105.5 -45t44.5 -107q0 -68 -50 -114q-44 -39 -102 -39q-64 0 -108.5 45t-44.5 109q0 63 45 107t110 44z" />
    <glyph glyph-name="at" unicode="@" horiz-adv-x="1617" 
d="M1078 1022h190l-185 -473q-19 -48 -19 -70q0 -20 28 -20q74 0 170 83q177 152 177 365q0 131 -86 222q-105 112 -296 112q-133 0 -256.5 -49t-217.5 -139q-104 -98 -169 -242q-67 -149 -67 -267q0 -80 36.5 -165t94.5 -141q119 -114 307 -114q106 0 199 28.5t245 106.5
l74 -77q-136 -85 -198 -114q-176 -82 -354 -82q-241 0 -393 147q-76 73 -121 181q-46 112 -46 225q0 283 204 527q173 206 427 279q119 34 245 34q262 0 402 -150q113 -120 113 -291q0 -208 -133 -381q-100 -129 -233 -190q-105 -47 -215 -47q-132 0 -132 104q0 25 11 84
q-111 -164 -209 -164q-45 0 -75 37q-35 44 -35 110q0 76 36.5 173t95.5 177q67 92 142.5 144.5t140.5 52.5q70 0 81 -71zM987 973q-23 1 -62 -43t-73 -109q-107 -203 -107 -286q0 -43 30 -43q26 0 73.5 59.5t104.5 162.5q68 124 68 205q0 52 -34 54z" />
    <glyph glyph-name="A" unicode="A" horiz-adv-x="1087" 
d="M606 430h-340l-160 -211q-46 -60 -46 -102q0 -32 23.5 -52t60.5 -20h32l-13 -45h-361l13 45q60 10 187 174l892 1146h51l-79 -1180q-1 -13 -1 -25q0 -115 79 -115h26l-13 -45h-532l13 45h15q119 5 134 140zM613 516l29 412l-312 -412h283z" />
    <glyph glyph-name="B" unicode="B" horiz-adv-x="1302" 
d="M847 728q133 -41 201 -99q46 -39 74 -97.5t28 -115.5q0 -133 -98 -254q-75 -92 -195 -133q-85 -29 -172 -29h-672l14 45l31 1q51 1 84.5 33.5t52.5 101.5l291 1013q6 21 6 40q0 39 -24 62t-65 23l-57 1l13 45h510q184 0 284 -62q53 -31 83.5 -89t30.5 -125
q0 -172 -176 -282q-107 -67 -244 -79zM435 79q52 -10 90 -10q164 0 256 129q37 52 60.5 126t23.5 140q0 104 -64 166q-54 53 -163 53q-10 0 -30 -1zM628 753q139 -1 215 51q65 44 105 128q43 90 43 185q0 91 -49.5 133t-158.5 43z" />
    <glyph glyph-name="C" unicode="C" horiz-adv-x="1341" 
d="M1170 286h42q-90 -137 -194 -206q-151 -100 -347 -100q-202 0 -342 128q-175 159 -175 443q0 296 189 510q136 153 325 242q186 88 368 88q63 0 167 -25q107 -26 135 -26q60 0 82 52h37l-114 -396h-37q2 33 2 53q0 118 -75 193.5t-194 75.5q-199 0 -367 -196
q-101 -117 -165 -293q-68 -186 -68 -371t93 -284q92 -98 247 -98q115 0 215 54t176 156z" />
    <glyph glyph-name="D" unicode="D" horiz-adv-x="1417" 
d="M196 181l290 1013q6 21 6 41q0 38 -24 61t-64 23l-58 1l13 45h449q146 0 238 -24.5t172 -83.5q96 -72 148 -180q53 -109 53 -236q0 -181 -77.5 -348.5t-215.5 -283.5q-135 -114 -294 -161.5t-403 -47.5h-393l13 45l10 1q53 3 85 34.5t52 100.5zM789 1300l-311 -1083
q-13 -46 -13 -70q0 -34 29 -55t77 -21q124 0 239 86q172 127 253 378q59 181 59 348q0 115 -37.5 209.5t-103.5 143.5q-40 30 -81 43.5t-111 20.5z" />
    <glyph glyph-name="E" unicode="E" horiz-adv-x="1274" 
d="M615 682l-132 -462q-13 -44 -13 -68q0 -38 31.5 -59t87.5 -21q124 0 264 70.5t270 199.5h39l-137 -342h-993l13 45l14 1q52 2 84.5 34t52.5 101l290 1013q6 21 6 40q0 39 -24 62t-64 23l-52 1l13 45h989l-91 -316h-37q-11 108 -83 169q-49 40 -103.5 55.5t-144.5 15.5
h-106l-152 -532h87q223 -2 318 198h43l-136 -475h-44q7 49 7 70q0 64 -43 98t-123 34h-131z" />
    <glyph glyph-name="F" unicode="F" horiz-adv-x="1080" 
d="M612 681l-147 -510q-5 -20 -5 -39q0 -39 23.5 -62.5t64.5 -23.5l76 -1l-14 -45h-581l13 45l16 1q53 2 85.5 34t52.5 101l290 1013q6 21 6 40q0 39 -24 62t-64 23l-66 1l13 45h911l-80 -323h-38q-7 95 -61 151q-91 92 -243 92h-55l-153 -532h49q184 11 274 195h42
l-136 -473h-41q8 39 8 62q0 64 -43 104t-112 40h-61z" />
    <glyph glyph-name="G" unicode="G" horiz-adv-x="1459" 
d="M1519 1383l-114 -399h-45q1 21 1 29q0 129 -68 202q-79 86 -243 86q-226 0 -385 -192q-99 -119 -161 -298q-60 -175 -60 -343q0 -147 61 -262q75 -141 223 -141q55 0 124 26l118 413q6 21 6 41q0 38 -24.5 61.5t-63.5 23.5h-41l13 45h539l-13 -45q-54 -5 -85.5 -36
t-51.5 -100l-128 -449q-134 -37 -221.5 -51t-194.5 -14q-198 0 -346 121q-93 76 -147 188q-64 131 -64 287q0 222 126 414q123 190 337 294q195 96 425 96q139 0 306 -38q31 -7 48 -7q47 0 84 48h45z" />
    <glyph glyph-name="H" unicode="H" horiz-adv-x="1581" 
d="M610 661l-140 -490q-6 -20 -6 -39q0 -85 88 -86l59 -1l-13 -45h-569l14 45l15 1q53 2 85.5 34t51.5 101l291 1013q6 21 6 40q0 39 -24 62t-64 23l-45 1l13 45h618l-13 -45l-80 -1q-50 0 -83.5 -33t-53.5 -102l-125 -438h479l128 448q6 21 6 40q0 39 -24 62t-64 23l-55 1
l13 45h575l-13 -45l-25 -1q-51 -1 -84.5 -33.5t-52.5 -101.5l-291 -1013q-6 -20 -6 -40q0 -38 24 -61.5t64 -23.5l51 -1l-13 -45h-621l13 45l76 1q50 0 83.5 33t53.5 102l137 480h-479z" />
    <glyph glyph-name="I" unicode="I" horiz-adv-x="823" 
d="M195 181l291 1013q6 21 6 40q0 39 -24 62t-64 23l-45 1l13 45h563l-13 -45l-25 -1q-51 -1 -84 -33.5t-53 -101.5l-290 -1013q-6 -20 -6 -39q0 -85 88 -86l59 -1l-13 -45h-569l14 45l15 1q53 2 85.5 34t51.5 101z" />
    <glyph glyph-name="J" unicode="J" horiz-adv-x="854" 
d="M791 1184l-241 -841q-40 -140 -125 -233q-118 -129 -285 -129q-112 0 -175 71q-50 58 -50 132q0 66 38 111t95 45q50 0 80 -28.5t30 -76.5q0 -29 -7.5 -48t-35.5 -56q-11 -15 -11 -32q0 -15 12.5 -26t28.5 -11q50 0 77 96l297 1036q6 21 6 40q0 39 -24 62t-64 23l-62 1
l13 45h569l-13 -45l-16 -1q-52 -2 -84.5 -34t-52.5 -101z" />
    <glyph glyph-name="K" unicode="K" horiz-adv-x="1329" 
d="M620 728l-160 -557q-5 -21 -5 -40q0 -39 24 -62t64 -23l65 -1l-13 -45h-569l13 45l20 1q52 2 84.5 34t52.5 101l290 1013q6 21 6 41q0 38 -24 61t-64 23l-65 1l13 45h594l-13 -45l-45 -1q-51 0 -84 -33t-53 -102l-127 -443l395 360q89 81 89 151q0 28 -17.5 48t-41.5 20
h-25l13 45h464l-13 -45q-47 -4 -109 -26q-34 -12 -95.5 -49.5t-92.5 -65.5l-348 -314l220 -678q11 -34 38 -73t50 -54q24 -15 63 -15l-13 -45h-531l13 45h25q37 0 60.5 24t23.5 60q0 27 -12 66z" />
    <glyph glyph-name="L" unicode="L" horiz-adv-x="1186" 
d="M1170 365l-147 -365h-998l13 46l19 1q52 2 85.5 34.5t53.5 100.5l290 1012q6 23 6 42q0 38 -23.5 60.5t-63.5 22.5l-59 1l13 45h602l-13 -45l-52 -1q-50 0 -83.5 -33t-53.5 -102l-278 -970q-11 -38 -11 -56q0 -38 35.5 -62t91.5 -24q71 0 158.5 27t161.5 71
q126 76 210 195h43z" />
    <glyph glyph-name="M" unicode="M" horiz-adv-x="1848" 
d="M874 380l701 985h397l-13 -45l-37 -1q-51 -1 -84.5 -33.5t-52.5 -101.5l-291 -1013q-6 -20 -6 -39q0 -85 89 -86l59 -1l-13 -45h-589l13 45l48 1q51 0 86 34t54 101l286 997l-828 -1178h-36l-131 1178l-271 -944q-12 -42 -12 -74q0 -49 35 -78.5t101 -36.5l-13 -45h-366
l13 45q116 16 166 201l290 1009q-25 33 -51 43t-114 22l13 45h449z" />
    <glyph glyph-name="N" unicode="N" horiz-adv-x="1451" 
d="M1128 434l204 714q16 56 16 92q0 79 -125 80l13 45h347l-13 -45q-68 -6 -102 -50t-71 -172l-315 -1098h-43l-519 1158l-265 -924q-12 -42 -12 -74q0 -49 35 -78.5t101 -36.5l-13 -45h-366l13 45q116 16 166 201l286 995q-33 43 -66 60t-87 19l13 45h392z" />
    <glyph glyph-name="O" unicode="O" horiz-adv-x="1432" 
d="M976 1379q132 0 244 -55q217 -108 217 -400q0 -270 -156 -517q-122 -193 -317 -309.5t-395 -116.5q-103 0 -189.5 32.5t-140.5 92.5q-120 130 -120 328q0 279 171 539q149 225 360 327q162 77 326 79zM949 1297q-183 0 -307 -199q-95 -152 -162 -392t-67 -389
q0 -115 52.5 -185t139.5 -70q102 0 191 70q142 113 242 413q103 308 103 504q0 114 -51 179.5t-141 68.5z" />
    <glyph glyph-name="P" unicode="P" horiz-adv-x="1226" 
d="M600 625l-130 -454q-6 -21 -6 -40q0 -39 24 -62t64 -23l80 -1l-13 -45h-583l13 45l10 1q53 4 85 35t52 100l290 1013q6 21 6 40q0 39 -24 62t-64 23l-58 1l13 45h517q178 0 293 -82q56 -40 88 -105t32 -139q0 -156 -125 -278q-152 -147 -409 -147q-59 0 -155 11zM624 708
q42 -10 74 -10q76 0 126 31t90 102q32 58 53 133.5t21 131.5q0 180 -198 192z" />
    <glyph glyph-name="Q" unicode="Q" horiz-adv-x="1432" 
d="M1361 -44l44 -36q-131 -119 -213 -168q-130 -78 -343 -78q-131 0 -384 47q-46 8 -95 8q-81 0 -155 -32l-24 36l319 251q-108 17 -165.5 43t-105.5 79q-56 61 -88 148t-32 180q0 280 171 540q149 225 359 326q166 79 327 79q98 0 187 -31t147 -86q127 -119 127 -338
q0 -270 -156 -517q-115 -181 -290.5 -293.5t-368.5 -129.5l-113 -89q85 12 134 12q41 0 66.5 -4t138.5 -28q142 -31 242 -31q134 0 271 112zM949 1297q-89 0 -167.5 -51t-139.5 -148q-95 -153 -162 -392q-67 -240 -67 -389q0 -115 52.5 -185t139.5 -70q102 0 191 70
q142 113 242 413q103 308 103 504q0 114 -50.5 179.5t-141.5 68.5z" />
    <glyph glyph-name="R" unicode="R" horiz-adv-x="1312" 
d="M617 663l-141 -492q-6 -20 -6 -39q0 -85 88 -86l59 -1l-13 -45h-575l14 45l15 1q53 2 85.5 34t51.5 101l291 1013q6 21 6 41q0 38 -24 61t-64 23l-66 1l13 45h467q238 0 357 -73q58 -35 91.5 -96.5t33.5 -133.5q0 -154 -133 -266q-52 -43 -103 -65.5t-141 -42.5l145 -505
q23 -81 50 -109.5t79 -28.5h26l-13 -45h-363l-182 663h-25h-23zM636 729q31 -2 47 -2q65 0 127.5 27t102.5 72q100 114 100 257q0 88 -59 146q-51 49 -159 54z" />
    <glyph glyph-name="S" unicode="S" horiz-adv-x="1044" 
d="M1158 1377l-106 -441h-47q2 27 2 40q0 58 -22 120.5t-58 105.5q-83 100 -214 100q-96 0 -151 -73q-49 -65 -49 -143q0 -85 65 -175q27 -39 154 -156q120 -110 167.5 -191t47.5 -173q0 -176 -145 -293q-142 -114 -336 -114q-65 0 -121 9t-192 43q-26 6 -55 6
q-60 0 -94 -55h-52l113 503h52q-4 -42 -4 -63q0 -66 26 -141t66 -124q37 -44 96.5 -73t115.5 -29q89 0 163 62q93 79 93 189q0 76 -56 152q-24 33 -150 150q-115 107 -167 200t-52 193q0 82 34 157.5t94 124.5q108 90 273 90q91 0 291 -50q44 -11 67 -11q43 0 69 14.5
t39 45.5h43z" />
    <glyph glyph-name="T" unicode="T" horiz-adv-x="1036" 
d="M893 1278l-318 -1107q-6 -21 -6 -40q0 -39 24.5 -62t64.5 -23l93 -1l-13 -45h-673l13 45l87 1q50 0 83.5 33t53.5 102l314 1097q-248 -14 -386 -251h-49l97 338h981l-97 -338h-53q4 33 4 56q0 93 -79 152q-51 37 -141 43z" />
    <glyph glyph-name="U" unicode="U" horiz-adv-x="1430" 
d="M738 1184l-211 -737q-21 -73 -21 -146q0 -103 68 -159q64 -53 170 -53q125 0 212 81q112 105 161 277l189 659q18 64 18 100q0 67 -56 96q-30 15 -93 18l13 45h423l-13 -45q-89 -15 -136 -74.5t-90 -211.5l-174 -605q-61 -213 -180 -326q-130 -123 -356 -123
q-191 0 -312 83q-125 85 -125 260q0 57 14 106l220 765q6 21 6 41q0 38 -24 61t-65 23l-46 1l13 45h616l-13 -45l-70 -1q-51 0 -84.5 -33t-53.5 -102z" />
    <glyph glyph-name="V" unicode="V" horiz-adv-x="1168" 
d="M574 435l538 705q59 76 59 112q0 27 -26 47.5t-60 20.5h-31l13 45h377l-13 -45q-63 -5 -99 -34.5t-122 -145.5l-870 -1140h-71l78 1188q1 12 1 25q0 107 -83 107h-30l13 45h529l-13 -45q-74 -2 -104.5 -37t-36.5 -124z" />
    <glyph glyph-name="W" unicode="W" horiz-adv-x="1686" 
d="M1202 470l489 714q35 52 35 91q0 45 -69 45h-31l13 45h322l-13 -45q-53 -16 -89.5 -43t-70.5 -77l-824 -1200h-60l61 935l-642 -935h-57l75 1184q1 21 1 39q0 52 -27 75q-25 22 -50 22h-30l13 45h505l-13 -45q-119 5 -134 -136l-42 -714l411 598l11 151q1 17 1 28
q0 73 -84 73h-32l13 45h516l-13 -45l-44 -3q-40 -2 -66 -34t-29 -83z" />
    <glyph glyph-name="X" unicode="X" horiz-adv-x="1189" 
d="M587 543l-280 -303q-71 -77 -71 -123q0 -72 104 -72h27l-13 -45h-427l13 45q113 29 284 218l337 362l-173 523q-44 157 -150 171l-27 1l13 45h550l-13 -45h-29q-32 0 -54 -27t-22 -66q0 -24 23 -94l90 -283l246 267q42 46 57 72.5t15 57.5q0 34 -20 53.5t-55 19.5h-22
l13 45h401l-13 -45q-53 -10 -93 -41q-109 -90 -250 -243l-251 -269l156 -482q57 -174 103 -214q23 -19 74 -26l-13 -45h-552l14 45h25q45 0 74 29.5t29 74.5q0 31 -10 63z" />
    <glyph glyph-name="Y" unicode="Y" horiz-adv-x="1096" 
d="M748 692l345 435q45 57 45 108q0 34 -30.5 59.5t-72.5 25.5h-38l13 45h396l-13 -45q-68 -21 -173 -148l-454 -580l-120 -421q-6 -21 -6 -40q0 -39 24 -62t64 -23l73 -1l-13 -45h-637l13 45l67 1q50 0 83.5 33t53.5 102l121 423l-131 523q-27 107 -62 150t-96 43h-26
l13 45h604l-13 -45h-37q-123 0 -123 -114q0 -28 8 -57z" />
    <glyph glyph-name="Z" unicode="Z" horiz-adv-x="1251" 
d="M1147 376l-138 -376h-1059l13 45l1019 1239h-212q-334 5 -476 -241h-70l117 322h1036v-45l-1028 -1240h165q162 0 289.5 65t290.5 231h53z" />
    <glyph glyph-name="bracketleft" unicode="[" horiz-adv-x="756" 
d="M658 1296l-452 -1573h183l-18 -64h-389l489 1706h366l-20 -69h-159z" />
    <glyph glyph-name="backslash" unicode="\" horiz-adv-x="976" 
d="M421 1365h157l175 -1706h-158z" />
    <glyph glyph-name="bracketright" unicode="]" horiz-adv-x="756" 
d="M146 -272l451 1573h-182l18 64h389l-490 -1706h-365l20 69h159z" />
    <glyph glyph-name="asciicircum" unicode="^" horiz-adv-x="1024" 
d="M1148 575h-114l-351 550l-372 -550h-304l583 859h17z" />
    <glyph glyph-name="underscore" unicode="_" horiz-adv-x="1024" 
d="M92 -185h972v-134h-972v134z" />
    <glyph glyph-name="grave" unicode="`" horiz-adv-x="1024" 
d="M674 1290l82 -229h-33l-305 229h256z" />
    <glyph glyph-name="a" unicode="a" horiz-adv-x="932" 
d="M887 884l-185 -643q-20 -71 -20 -101q0 -33 31 -33q57 0 120 123l44 -16q-76 -131 -138 -180t-151 -49q-138 0 -138 120q0 61 20 150q-73 -127 -119 -181q-76 -86 -160 -86q-69 0 -115.5 66t-46.5 163q0 136 54 277t148 250q140 161 272 161q52 0 80 -29.5t38 -96.5
l29 105h237zM532 845q-77 9 -174 -217q-42 -98 -73.5 -210.5t-31.5 -165.5q0 -93 57 -93q34 0 73.5 51t100.5 173q106 214 106 364q0 91 -58 98z" />
    <glyph glyph-name="b" unicode="b" horiz-adv-x="924" 
d="M481 788q117 110 208 110q92 0 144.5 -78t52.5 -214q0 -215 -127 -391q-100 -138 -255 -197q-88 -34 -166 -34q-134 0 -294 99l298 1039q18 63 18 79q0 58 -82 79l11 36l359 55zM269 49q56 -22 87 -22q65 0 129 90q78 110 123 249t45 269q0 60 -23 97q-29 47 -72 47
q-37 0 -67.5 -31.5t-46.5 -87.5z" />
    <glyph glyph-name="c" unicode="c" horiz-adv-x="837" 
d="M672 242l43 -23q-179 -233 -399 -233q-115 0 -190 68q-91 82 -91 222t85 285q115 198 294 289q103 53 190 53q86 0 142 -47t56 -119q0 -58 -40 -104t-90 -46q-38 0 -64.5 28t-26.5 68q0 34 13.5 55t56.5 52q17 13 17 26q0 16 -21 27t-51 11q-49 0 -100 -29.5t-86 -77.5
q-62 -86 -104 -207.5t-42 -213.5q0 -223 184 -223q125 0 224 139z" />
    <glyph glyph-name="d" unicode="d" horiz-adv-x="926" 
d="M832 228l39 -14q-55 -110 -126 -166t-155 -56q-65 0 -102 35t-37 84q0 37 31 150q-93 -138 -138 -188q-73 -83 -151 -83q-68 0 -114.5 70.5t-46.5 174.5q0 164 84 331q77 151 187.5 245.5t210.5 94.5q67 0 132 -71l94 329q10 31 10 54q0 29 -24 47t-61 17l10 37l366 46
l-354 -1151q-15 -45 -15 -66q0 -36 33 -36q61 0 127 116zM543 851q-55 2 -117 -94q-78 -123 -138 -334q-32 -113 -32 -175q0 -88 55 -88q30 0 63 35t80 118q60 104 105.5 242t45.5 213q0 80 -62 83z" />
    <glyph glyph-name="e" unicode="e" horiz-adv-x="842" 
d="M696 244l30 -32q-190 -228 -389 -228q-68 0 -132 26.5t-102 70.5q-62 74 -62 200q0 152 78 300q91 174 252 261q119 64 251 64q97 0 144 -45q44 -41 44 -111q0 -83 -61.5 -163t-167.5 -135q-72 -37 -138.5 -52.5t-167.5 -17.5q-1 -34 -1 -60q0 -101 46.5 -155.5
t132.5 -54.5q67 0 115.5 26.5t127.5 105.5zM279 425q144 9 230 103q39 42 67.5 115.5t28.5 131.5q0 32 -18 53t-45 21q-69 0 -147.5 -126t-115.5 -298z" />
    <glyph glyph-name="f" unicode="f" horiz-adv-x="563" 
d="M487 771l-155 -581q-35 -129 -93 -243.5t-119 -173.5q-104 -102 -232 -102q-74 0 -117.5 28t-43.5 77q0 42 31.5 71t78.5 29q83 0 83 -72q0 -25 -15 -51q-8 -13 -8 -20q0 -17 19 -17q68 0 161 381l181 674h-106l33 116q67 7 92.5 30t67.5 111t71.5 130.5t80.5 89.5
q126 114 261 114q67 0 115 -25q65 -33 65 -103q0 -41 -27 -69t-66 -28q-34 0 -56.5 22.5t-22.5 55.5q0 22 21 64q7 13 7 22q0 24 -30 24q-46 0 -104 -78q-34 -46 -59 -106t-60 -182l-20 -72h99l-33 -116h-100z" />
    <glyph glyph-name="g" unicode="g" horiz-adv-x="874" 
d="M704 839h230l-30 -106h-123q26 -65 26 -105q0 -104 -82 -185q-112 -111 -265 -111q-88 0 -145 20l-28 -14q-34 -18 -44 -27t-10 -22q0 -36 83 -55q48 -11 139 -43.5t118 -48.5q125 -73 125 -191q0 -61 -34 -117.5t-92 -91.5q-116 -72 -315 -72q-151 0 -247 40
q-54 22 -88 65.5t-34 90.5q0 96 116 149q56 25 165 47q-120 46 -120 146q0 56 47 93t162 72q-72 32 -110.5 85.5t-38.5 123.5q0 66 31.5 129t85.5 104q107 82 269 82q66 0 110 -12t99 -46zM205 41q-2 1 -3 1q-15 1 -100 -53q-59 -38 -59 -110q0 -75 63 -122t164 -47
q100 0 162.5 40.5t62.5 105.5q0 44 -29.5 73.5t-98.5 52.5q-104 36 -162 59zM513 852q-45 0 -75.5 -34t-57.5 -113q-65 -196 -65 -240q0 -39 20.5 -63t53.5 -24q54 0 88.5 39t66.5 134q40 123 47 149.5t7 58.5q0 42 -23 67t-62 26z" />
    <glyph glyph-name="h" unicode="h" horiz-adv-x="1002" 
d="M874 205l32 -17q-63 -95 -106 -138q-72 -71 -165 -71q-60 0 -96.5 35t-36.5 92q0 33 22 99l135 418q13 39 13 67q0 13 -11.5 23.5t-26.5 10.5q-43 0 -113 -89t-148 -246l-120 -389h-232l356 1133q14 45 14 68q0 49 -86 75l10 34l372 55l-251 -800q93 161 175 238
q86 80 180 80q53 0 87.5 -39t34.5 -99q0 -46 -17 -100l-152 -488q-6 -19 -6 -32q0 -27 25 -27q44 0 111 107z" />
    <glyph glyph-name="i" unicode="i" horiz-adv-x="573" 
d="M481 242l37 -30q-63 -99 -124 -150q-52 -45 -90 -63t-80 -18q-67 0 -105 38.5t-38 105.5q0 52 20 114l137 420q20 59 20 87q0 23 -19.5 40t-45.5 17q-17 0 -40 -4l14 48l393 55l-231 -724q-9 -28 -9 -41q0 -25 25 -25q37 0 136 130zM498 1372q59 0 101 -43t42 -102
q0 -60 -42.5 -102.5t-102.5 -42.5t-102.5 42.5t-42.5 103.5q0 60 43 102t104 42z" />
    <glyph glyph-name="j" unicode="j" horiz-adv-x="539" 
d="M518 901l-205 -761q-71 -262 -192 -381q-47 -47 -118 -76.5t-134 -29.5q-65 0 -107.5 29t-42.5 73q0 40 29 67.5t71 27.5q33 0 57.5 -20t24.5 -47q0 -20 -22 -45q-14 -17 -14 -28q0 -7 8 -14t17 -7q39 0 74.5 74t84.5 256l164 617q13 52 13 78q0 52 -51 68q-9 3 -59 5
l13 45zM427 1364q55 0 95.5 -41t40.5 -97q0 -58 -40.5 -98.5t-97.5 -40.5q-58 0 -98.5 40.5t-40.5 98.5t41 98t100 40z" />
    <glyph glyph-name="k" unicode="k" horiz-adv-x="1022" 
d="M351 339l-97 -339h-237l345 1134q13 42 13 67q0 68 -86 68l13 46l369 50l-294 -937l312 260q55 46 55 90q0 31 -19.5 42.5t-84.5 19.5l11 39h409l-11 -39q-87 2 -224 -115l-143 -119l87 -363q25 -102 61 -102q24 0 43.5 21t49.5 81h53q-56 -116 -121 -180
q-77 -74 -151 -74q-106 0 -135 124l-79 337z" />
    <glyph glyph-name="l" unicode="l" horiz-adv-x="548" 
d="M665 1394l-330 -1149q-24 -83 -24 -108q0 -24 20 -24q35 0 76 54q35 46 40 53l36 -23q-66 -99 -117 -145q-73 -66 -158 -66q-60 0 -95.5 34.5t-35.5 93.5q0 47 17 106l264 919q13 46 13 66q0 36 -20.5 55.5t-69.5 30.5l11 38z" />
    <glyph glyph-name="m" unicode="m" horiz-adv-x="1512" 
d="M1396 234l28 -20q-128 -215 -278 -215q-52 0 -85 27q-42 35 -42 87q0 32 12 74l129 449q12 42 12 70q0 14 -10 24t-24 10q-73 0 -174 -153q-89 -133 -149 -343l-70 -244h-245l189 617q16 53 16 79q0 39 -34 39q-68 0 -168 -140q-34 -48 -85.5 -156t-67.5 -165l-77 -274
h-239l202 676q11 38 11 55q0 33 -23.5 55.5t-58.5 22.5h-8l12 42l361 52l-107 -375q94 159 166 242q53 60 118.5 95.5t123.5 35.5q48 0 78.5 -34t30.5 -88q0 -95 -38 -233q199 357 386 357q55 0 91.5 -37.5t36.5 -94.5q0 -65 -20 -135l-125 -435q-10 -33 -10 -45
q0 -30 24 -30q38 0 111 108z" />
    <glyph glyph-name="n" unicode="n" horiz-adv-x="1019" 
d="M888 240l42 -27q-69 -119 -126 -163q-77 -60 -165 -60q-53 0 -87.5 34.5t-34.5 86.5q0 34 22 113l108 376q20 69 20 97q0 35 -33 35q-41 0 -91 -72q-53 -77 -97.5 -159t-57.5 -126l-108 -375h-239l198 693q12 42 12 56q0 28 -25.5 45t-67.5 18l12 42l372 57l-97 -339
q174 334 345 334q61 0 97 -38.5t36 -104.5q0 -47 -19 -114l-131 -455q-10 -34 -10 -47q0 -24 24 -24q36 0 101 117z" />
    <glyph glyph-name="o" unicode="o" horiz-adv-x="904" 
d="M604 916q107 0 179 -76q80 -82 80 -222q0 -163 -83 -311.5t-225 -239.5q-125 -80 -240 -80q-121 0 -197 81q-76 79 -76 211q0 173 95 335q90 153 235 235q122 69 232 67zM563 847q-113 0 -180 -167q-48 -119 -88 -276t-40 -227q0 -55 26.5 -91.5t67.5 -36.5q90 0 155 140
q56 120 100.5 289.5t44.5 263.5q0 48 -22.5 76t-63.5 29z" />
    <glyph glyph-name="p" unicode="p" horiz-adv-x="947" 
d="M281 -17l-36 -126q-10 -34 -10 -62q0 -38 32 -68t74 -30h7l-11 -38h-510l11 38h20q96 1 139 135l229 800q14 49 14 74q0 79 -90 79l12 40l330 68h50l-31 -108q97 76 128 92.5t75 16.5q87 0 137.5 -71t50.5 -193q0 -133 -51 -265.5t-138 -225.5q-77 -82 -167 -128
t-174 -46q-38 0 -91 18zM306 71q36 -58 81 -58q98 0 186 184q46 93 73.5 206t27.5 204q0 61 -24 97.5t-64 36.5q-69 0 -111 -82z" />
    <glyph glyph-name="q" unicode="q" horiz-adv-x="934" 
d="M467 213q-68 -105 -117 -153q-82 -79 -168 -79q-68 0 -113.5 64.5t-45.5 161.5q0 139 67 297q97 231 255 334q97 64 183 64q90 0 117 -120l29 101h239l-314 -1026q-11 -36 -11 -61q0 -45 34 -72q33 -27 67 -27h9l-11 -38h-513l11 38h20q96 1 142 135zM544 836
q-34 3 -85 -54.5t-89 -140.5q-48 -106 -80.5 -220t-32.5 -175q0 -90 53 -90q52 0 120 99q70 100 121.5 242t51.5 236q0 99 -59 103z" />
    <glyph glyph-name="r" unicode="r" horiz-adv-x="733" 
d="M500 909l-124 -537q111 256 181 376q55 93 92 128t82 35q46 0 74 -33t28 -88q0 -85 -36.5 -144.5t-89.5 -59.5q-50 0 -74 55q-15 34 -26 34q-25 0 -180 -303q-62 -120 -87 -184t-59 -188h-238l187 652q17 76 17 87q0 26 -21 46t-47 20q-8 0 -59 -6l18 64q103 6 362 46z
" />
    <glyph glyph-name="s" unicode="s" horiz-adv-x="724" 
d="M673 897l-45 -287h-44q-12 104 -54 159q-62 82 -138 82q-40 0 -65.5 -24.5t-25.5 -63.5q0 -41 18.5 -70.5t130.5 -166.5q77 -95 100.5 -146t23.5 -124q0 -102 -69 -178q-90 -99 -220 -99q-63 0 -125 23q-54 20 -79 20q-52 0 -68 -40h-42l43 290h40q21 -92 75 -160
q68 -84 150 -84q50 0 82.5 32.5t32.5 82.5q0 45 -22 86t-95 134q-94 119 -116 160q-46 83 -46 158q0 83 56 143q71 75 204 75q44 0 61.5 -3t79.5 -22q24 -7 43 -7q34 0 66 38z" />
    <glyph glyph-name="t" unicode="t" horiz-adv-x="597" 
d="M491 771l-178 -577q-11 -38 -11 -60q0 -15 9 -25.5t22 -10.5q43 0 116 122l46 -26q-64 -96 -117 -138q-89 -69 -183 -69q-59 0 -96.5 37.5t-37.5 96.5q0 26 8 52l183 598h-168l34 116q62 4 113 22t121 60q119 73 201 174h44l-73 -256h116l-33 -116h-116z" />
    <glyph glyph-name="u" unicode="u" horiz-adv-x="999" 
d="M878 260l40 -17q-128 -260 -307 -260q-46 0 -76.5 24t-30.5 62q0 37 21 101q8 25 21 73q-121 -155 -186.5 -207.5t-136.5 -52.5q-62 0 -99 43q-32 37 -32 88q0 57 21 129l125 436q8 27 8 50q0 32 -19 51.5t-51 19.5q-9 0 -22 -1l13 45l371 52l-187 -653q-11 -40 -11 -54
q0 -36 31 -36q26 0 52.5 24.5t72.5 90.5q71 102 126 239l111 389h238l-202 -705q-11 -39 -11 -56t15 -17q36 0 105 142z" />
    <glyph glyph-name="v" unicode="v" horiz-adv-x="696" 
d="M372 249q236 218 236 323q0 41 -36 91q-32 43 -42 66.5t-10 53.5q0 45 30 78t72 33q55 0 94.5 -44t39.5 -106q0 -49 -27 -121t-68 -135q-119 -179 -366 -396q-69 -60 -110 -104l-67 12q29 162 29 415q0 205 -21.5 297t-70.5 92q-9 0 -23 -3v50q40 4 140 21q102 18 150 27
q53 -245 53 -493q0 -66 -3 -157z" />
    <glyph glyph-name="w" unicode="w" horiz-adv-x="1135" 
d="M569 548l-381 -563l-63 10q26 125 26 395q0 205 -10 362q-4 62 -38 62q-4 0 -12 -1q-8 -2 -24 -3v43q83 13 233 37l54 9q29 -264 28 -525l359 530h55l15 -675q129 131 187.5 217t58.5 144q0 31 -43 87q-31 40 -40.5 61.5t-9.5 49.5q0 48 30 80.5t74 32.5q53 0 90.5 -45.5
t37.5 -111.5q0 -70 -55 -176.5t-153 -225.5q-117 -143 -332 -353l-65 12z" />
    <glyph glyph-name="x" unicode="x" horiz-adv-x="861" 
d="M775 236l43 -27q-74 -119 -138 -170.5t-137 -51.5q-89 0 -132 58.5t-87 243.5l-95 -155q-37 -62 -100 -105t-116 -43t-83 27.5t-30 75.5q0 46 31.5 77t78.5 31q30 0 84 -29q17 -8 34 -8q41 0 80 64l89 146l-70 293q-36 155 -124 155q-18 0 -48 -7l13 45l318 63
q70 -209 92 -312l94 165q39 68 89.5 106t102.5 38t87 -30t35 -74q0 -45 -30.5 -76t-74.5 -31q-23 0 -80 17q-16 4 -33 4q-42 0 -64.5 -27.5t-102.5 -172.5q65 -257 90 -321q27 -72 75 -72q23 0 53 28.5t56 74.5z" />
    <glyph glyph-name="y" unicode="y" horiz-adv-x="749" 
d="M418 172q109 125 192 261.5t83 193.5q0 39 -56 70q-39 22 -53.5 42.5t-14.5 54.5q0 49 32.5 83.5t78.5 34.5q54 0 95.5 -45.5t41.5 -105.5q0 -94 -101 -268t-313 -445q-177 -225 -273.5 -307.5t-185.5 -82.5q-64 0 -106.5 37t-42.5 93q0 50 31 84.5t77 34.5q47 0 119 -52
q53 -39 72 -39q33 0 88 61v137q0 91 -14.5 344.5t-23.5 324.5q-15 112 -101 112q-11 0 -27 -1l15 52l274 61q51 -82 70 -173t30 -307z" />
    <glyph glyph-name="z" unicode="z" horiz-adv-x="711" 
d="M52 538l105 327h597l-554 -649q57 -25 82.5 -64.5t49.5 -142.5q15 -66 31 -92.5t41 -26.5q16 0 30 13.5t14 28.5q0 6 -7 32q-5 17 -5 45q0 70 29.5 111.5t78.5 41.5q44 0 73 -31.5t29 -78.5q0 -70 -65 -136q-76 -78 -179 -78q-142 0 -258 126q-31 34 -48 44.5t-41 10.5
q-21 0 -37 -19h-89l565 661h-181q-97 0 -138.5 -24.5t-72.5 -98.5h-50z" />
    <glyph glyph-name="braceleft" unicode="{" horiz-adv-x="996" 
d="M241 533q65 37 97 80.5t57 131.5l113 393q27 96 44 130.5t48 59.5q29 23 66 30t135 7h183l-20 -67h-52q-92 1 -121 -22t-55 -116l-114 -396q-37 -127 -72.5 -175.5t-96.5 -55.5q58 -17 58 -97q0 -58 -29 -160l-119 -412q-18 -65 -18 -85q0 -32 23 -42.5t93 -10.5h52
l-19 -67h-183q-104 0 -140 10q-54 16 -54 76q0 29 32 141l117 407q24 86 24 128q0 67 -49 112z" />
    <glyph glyph-name="bar" unicode="|" horiz-adv-x="1024" 
d="M490 1365h176v-1706h-176v1706z" />
    <glyph glyph-name="braceright" unicode="}" horiz-adv-x="996" 
d="M801 533q-65 -38 -100 -90t-63 -150l-116 -407q-29 -98 -45.5 -132.5t-46.5 -57.5q-31 -23 -68.5 -30t-132.5 -7h-183l19 67h53q92 0 120.5 22.5t55.5 115.5l118 412q65 230 176 257q-67 8 -67 82q0 41 31 149l114 396q18 64 18 85q0 32 -20 41.5t-95 11.5h-53l19 67h183
q110 -2 141 -9q53 -14 53 -79q0 -30 -32 -139l-112 -393q-20 -69 -20 -109q0 -60 53 -103z" />
    <glyph glyph-name="asciitilde" unicode="~" horiz-adv-x="1365" 
d="M1118 1502l41 -26q-51 -101 -124.5 -159t-149.5 -58q-49 0 -166 41q-118 41 -176 41q-66 0 -110 -42q-9 -9 -55 -58l-40 25q122 219 274 219q53 0 172 -42q109 -38 161 -38q94 0 173 97z" />
    <glyph glyph-name="Adieresis" horiz-adv-x="1087" 
d="M606 430h-340l-160 -211q-46 -60 -46 -102q0 -32 23.5 -52t60.5 -20h32l-13 -45h-361l13 45q60 10 187 174l892 1146h51l-79 -1180q-1 -13 -1 -25q0 -115 79 -115h26l-13 -45h-532l13 45h15q119 5 134 140zM613 516l29 412l-312 -412h283zM709 1711q52 0 90 -38.5
t38 -91.5q0 -54 -38 -92t-92 -38t-92 38t-38 93q0 54 38.5 91.5t93.5 37.5zM1116 1711q52 0 90 -38.5t38 -91.5q0 -54 -38 -92t-92 -38t-92 38t-38 93q0 54 38.5 91.5t93.5 37.5z" />
    <glyph glyph-name="onesuperior" horiz-adv-x="644" 
d="M706 1390l-211 -736q-3 -11 -3 -20q0 -47 51 -47h66l-12 -41h-402l12 41h49q29 0 47 17.5t29 55.5l144 500q12 43 12 69q0 19 -14.5 31.5t-36.5 12.5t-80 -13l-14 38z" />
    <glyph glyph-name="twosuperior" unicode="&#xb2;" horiz-adv-x="644" 
d="M355 691h85q103 -4 192 79h43l-99 -224h-391l-15 28l146 164q144 162 194 240.5t50 142.5q0 55 -33 88q-43 43 -96 43q-71 0 -123 -83l-37 18q72 187 228 187q99 0 156 -55q27 -26 45 -69t18 -83q0 -85 -82 -192.5t-281 -283.5z" />
    <glyph glyph-name="Eacute" horiz-adv-x="1274" 
d="M615 682l-132 -462q-13 -44 -13 -68q0 -38 31.5 -59t87.5 -21q124 0 264 70.5t270 199.5h39l-137 -342h-993l13 45l14 1q52 2 84.5 34t52.5 101l290 1013q6 21 6 40q0 39 -24 62t-64 23l-52 1l13 45h989l-91 -316h-37q-11 108 -83 169q-49 40 -103.5 55.5t-144.5 15.5
h-106l-152 -532h87q223 -2 318 198h43l-136 -475h-44q7 49 7 70q0 64 -43 98t-123 34h-131zM1271 1699l-432 -236h-41l200 236h273z" />
    <glyph glyph-name="threesuperior" unicode="&#xb3;" horiz-adv-x="644" 
d="M541 1034q99 -51 99 -183q0 -68 -26 -131.5t-72 -104.5q-85 -77 -222 -77q-69 0 -110.5 22.5t-41.5 60.5q0 27 20 45t49 18q46 0 96 -53q31 -33 60 -33q43 0 72.5 49.5t29.5 121.5q0 115 -82 175q-44 32 -129 34l11 39h21q76 0 143 36q38 21 63.5 60t25.5 77
q0 37 -25.5 63.5t-61.5 26.5q-50 0 -99 -62l-31 23q56 75 101 103.5t107 28.5q79 0 126 -38t47 -103q0 -86 -59 -142q-35 -33 -112 -56z" />
    <glyph glyph-name="Odieresis" horiz-adv-x="1432" 
d="M976 1379q132 0 244 -55q217 -108 217 -400q0 -270 -156 -517q-122 -193 -317 -309.5t-395 -116.5q-103 0 -189.5 32.5t-140.5 92.5q-120 130 -120 328q0 279 171 539q149 225 360 327q162 77 326 79zM949 1297q-183 0 -307 -199q-95 -152 -162 -392t-67 -389
q0 -115 52.5 -185t139.5 -70q102 0 191 70q142 113 242 413q103 308 103 504q0 114 -51 179.5t-141 68.5zM822 1711q52 0 90 -38.5t38 -91.5q0 -54 -38 -92t-92 -38t-92 38t-38 93q0 54 38.5 91.5t93.5 37.5zM1229 1711q52 0 90 -38.5t38 -91.5q0 -54 -38 -92t-92 -38
t-92 38t-38 93q0 54 38.5 91.5t93.5 37.5z" />
    <glyph glyph-name="Udieresis" horiz-adv-x="1430" 
d="M738 1184l-211 -737q-21 -73 -21 -146q0 -103 68 -159q64 -53 170 -53q125 0 212 81q112 105 161 277l189 659q18 64 18 100q0 67 -56 96q-30 15 -93 18l13 45h423l-13 -45q-89 -15 -136 -74.5t-90 -211.5l-174 -605q-61 -213 -180 -326q-130 -123 -356 -123
q-191 0 -312 83q-125 85 -125 260q0 57 14 106l220 765q6 21 6 41q0 38 -24 61t-65 23l-46 1l13 45h616l-13 -45l-70 -1q-51 0 -84.5 -33t-53.5 -102zM853 1711q52 0 90 -38.5t38 -91.5q0 -54 -38 -92t-92 -38t-92 38.5t-38 92.5t38.5 91.5t93.5 37.5zM1260 1711
q52 0 90 -38.5t38 -91.5q0 -54 -38 -92t-92 -38t-92 38.5t-38 92.5t38.5 91.5t93.5 37.5z" />
    <glyph glyph-name="circumflex" horiz-adv-x="1024" 
d="M843 1292l79 -232h-32l-155 132l-284 -132h-35l229 232h198z" />
    <glyph glyph-name="agrave" horiz-adv-x="932" 
d="M887 884l-185 -643q-20 -71 -20 -101q0 -33 31 -33q57 0 120 123l44 -16q-76 -131 -138 -180t-151 -49q-138 0 -138 120q0 61 20 150q-73 -127 -119 -181q-76 -86 -160 -86q-69 0 -115.5 66t-46.5 163q0 136 54 277t148 250q140 161 272 161q52 0 80 -29.5t38 -96.5
l29 105h237zM532 845q-77 9 -174 -217q-42 -98 -73.5 -210.5t-31.5 -165.5q0 -93 57 -93q34 0 73.5 51t100.5 173q106 214 106 364q0 91 -58 98zM642 1290l82 -229h-33l-305 229h256z" />
    <glyph glyph-name="acircumflex" horiz-adv-x="932" 
d="M887 884l-185 -643q-20 -71 -20 -101q0 -33 31 -33q57 0 120 123l44 -16q-76 -131 -138 -180t-151 -49q-138 0 -138 120q0 61 20 150q-73 -127 -119 -181q-76 -86 -160 -86q-69 0 -115.5 66t-46.5 163q0 136 54 277t148 250q140 161 272 161q52 0 80 -29.5t38 -96.5
l29 105h237zM532 845q-77 9 -174 -217q-42 -98 -73.5 -210.5t-31.5 -165.5q0 -93 57 -93q34 0 73.5 51t100.5 173q106 214 106 364q0 91 -58 98zM797 1292l79 -232h-32l-155 132l-284 -132h-35l229 232h198z" />
    <glyph glyph-name="adieresis" horiz-adv-x="932" 
d="M887 884l-185 -643q-20 -71 -20 -101q0 -33 31 -33q57 0 120 123l44 -16q-76 -131 -138 -180t-151 -49q-138 0 -138 120q0 61 20 150q-73 -127 -119 -181q-76 -86 -160 -86q-69 0 -115.5 66t-46.5 163q0 136 54 277t148 250q140 161 272 161q52 0 80 -29.5t38 -96.5
l29 105h237zM532 845q-77 9 -174 -217q-42 -98 -73.5 -210.5t-31.5 -165.5q0 -93 57 -93q34 0 73.5 51t100.5 173q106 214 106 364q0 91 -58 98zM501 1301q50 0 86.5 -37t36.5 -88q0 -52 -36.5 -88.5t-88.5 -36.5t-88.5 36.5t-36.5 89.5q0 52 37 88t90 36zM845 1301
q50 0 86.5 -37t36.5 -88q0 -52 -36.5 -88.5t-88.5 -36.5t-88.5 37t-36.5 89t37 88t90 36z" />
    <glyph glyph-name="acute" unicode="&#xb4;" horiz-adv-x="1024" 
d="M1042 1294l-432 -236h-41l200 236h273z" />
    <glyph glyph-name="dieresis" unicode="&#xa8;" horiz-adv-x="1024" 
d="M547 1301q50 0 86.5 -37t36.5 -88q0 -52 -36.5 -88.5t-88.5 -36.5t-88.5 37t-36.5 89t37 88t90 36zM891 1301q50 0 86.5 -37t36.5 -88t-36.5 -88t-88.5 -37t-88.5 36.5t-36.5 89.5q0 52 37 88t90 36z" />
    <glyph glyph-name="ccedilla" horiz-adv-x="837" 
d="M311 -14l-22 -52q65 0 110.5 -36t45.5 -87q0 -62 -67 -106q-53 -35 -144 -35q-88 0 -173 44l9 31q66 -27 109 -27q47 0 77.5 18t30.5 46q0 59 -103 65l75 144q-83 18 -133 63q-91 83 -91 222q0 140 85 286q115 197 294 289q103 52 190 52q86 0 142 -47t56 -119
q0 -58 -40 -104t-90 -46q-38 0 -64.5 28t-26.5 68q0 34 13.5 55t56.5 52q17 13 17 27q0 15 -21 26t-51 11q-49 0 -100.5 -29.5t-85.5 -77.5q-62 -86 -104 -207t-42 -213q0 -223 184 -223q125 0 224 138l43 -23q-173 -234 -404 -233z" />
    <glyph glyph-name="eacute" horiz-adv-x="842" 
d="M696 244l30 -32q-190 -228 -389 -228q-68 0 -132 26.5t-102 70.5q-62 74 -62 200q0 152 78 300q91 174 252 261q119 64 251 64q97 0 144 -45q44 -41 44 -111q0 -83 -61.5 -163t-167.5 -135q-72 -37 -138.5 -52.5t-167.5 -17.5q-1 -34 -1 -60q0 -101 46.5 -155.5
t132.5 -54.5q67 0 115.5 26.5t127.5 105.5zM279 425q144 9 230 103q39 42 67.5 115.5t28.5 131.5q0 32 -18 53t-45 21q-69 0 -147.5 -126t-115.5 -298zM965 1294l-432 -236h-41l200 236h273z" />
    <glyph glyph-name="egrave" horiz-adv-x="842" 
d="M696 244l30 -32q-190 -228 -389 -228q-68 0 -132 26.5t-102 70.5q-62 74 -62 200q0 152 78 300q91 174 252 261q119 64 251 64q97 0 144 -45q44 -41 44 -111q0 -83 -61.5 -163t-167.5 -135q-72 -37 -138.5 -52.5t-167.5 -17.5q-1 -34 -1 -60q0 -101 46.5 -155.5
t132.5 -54.5q67 0 115.5 26.5t127.5 105.5zM279 425q144 9 230 103q39 42 67.5 115.5t28.5 131.5q0 32 -18 53t-45 21q-69 0 -147.5 -126t-115.5 -298zM624 1290l82 -229h-33l-305 229h256z" />
    <glyph glyph-name="ecircumflex" horiz-adv-x="842" 
d="M696 244l30 -32q-190 -228 -389 -228q-68 0 -132 26.5t-102 70.5q-62 74 -62 200q0 152 78 300q91 174 252 261q119 64 251 64q97 0 144 -45q44 -41 44 -111q0 -83 -61.5 -163t-167.5 -135q-72 -37 -138.5 -52.5t-167.5 -17.5q-1 -34 -1 -60q0 -101 46.5 -155.5
t132.5 -54.5q67 0 115.5 26.5t127.5 105.5zM279 425q144 9 230 103q39 42 67.5 115.5t28.5 131.5q0 32 -18 53t-45 21q-69 0 -147.5 -126t-115.5 -298zM766 1292l79 -232h-32l-155 132l-284 -132h-35l229 232h198z" />
    <glyph glyph-name="edieresis" horiz-adv-x="842" 
d="M696 244l30 -32q-190 -228 -389 -228q-68 0 -132 26.5t-102 70.5q-62 74 -62 200q0 152 78 300q91 174 252 261q119 64 251 64q97 0 144 -45q44 -41 44 -111q0 -83 -61.5 -163t-167.5 -135q-72 -37 -138.5 -52.5t-167.5 -17.5q-1 -34 -1 -60q0 -101 46.5 -155.5
t132.5 -54.5q67 0 115.5 26.5t127.5 105.5zM279 425q144 9 230 103q39 42 67.5 115.5t28.5 131.5q0 32 -18 53t-45 21q-69 0 -147.5 -126t-115.5 -298zM470 1301q50 0 86.5 -37t36.5 -88q0 -52 -36.5 -88.5t-88.5 -36.5t-88.5 37t-36.5 89t37 88t90 36zM814 1301
q50 0 86.5 -37t36.5 -88t-36.5 -88t-88.5 -37t-88.5 36.5t-36.5 89.5q0 52 37 88t90 36z" />
    <glyph glyph-name="sterling" unicode="&#xa3;" horiz-adv-x="969" 
d="M506 613q-52 -223 -109 -323q243 -123 333 -123q27 0 42.5 11t34.5 44l54 -12q-104 -227 -290 -227q-66 0 -137 26.5t-132 72.5q-24 -44 -40 -60q-38 -37 -87 -37q-55 0 -92.5 41t-37.5 101q0 71 47 126q54 64 136 64q14 0 36 -2q12 180 30 298h-189l41 146h156
q26 159 59.5 253t97.5 186q132 190 325 190q87 0 143.5 -40t56.5 -103q0 -49 -31.5 -80.5t-81.5 -31.5q-46 0 -74.5 25.5t-28.5 67.5q0 20 6 36q11 27 11 36q0 25 -37 25t-58.5 -31t-36.5 -106q-69 -311 -105 -427h222l-41 -146h-223zM225 132q-36 27 -62 27q-45 0 -45 -49
q0 -42 44 -42q26 0 44 22q5 7 13 24t6 18z" />
    <glyph glyph-name="trademark" unicode="&#x2122;" horiz-adv-x="1753" 
d="M660 1302l-176 -613q-3 -10 -3 -19q0 -44 48 -44h62l-11 -39h-411l11 39h58q26 0 43.5 17t27.5 52l174 607q-138 -8 -214 -140h-40l58 203h592l-58 -203h-44q3 20 3 34q0 44 -32.5 73t-87.5 33zM1274 824l397 541h246l-11 -39h-29q-52 -4 -71 -69l-163 -568
q-3 -10 -3 -18q0 -45 48 -45h42l-11 -39h-362l12 39h35q26 0 44 17t28 52l151 526l-460 -634h-29l-84 633l-142 -495q-7 -23 -7 -38q0 -55 83 -62l-11 -38h-230l11 38q67 6 95 106l161 563q-13 16 -27 20.5t-72 12.5l11 38h277z" />
    <glyph glyph-name="icircumflex" horiz-adv-x="573" 
d="M481 242l37 -30q-63 -99 -124 -150q-52 -45 -90 -63t-80 -18q-67 0 -105 38.5t-38 105.5q0 52 20 114l137 420q20 59 20 87q0 23 -19.5 40t-45.5 17q-17 0 -40 -4l14 48l393 55l-231 -724q-9 -28 -9 -41q0 -25 25 -25q37 0 136 130zM604 1292l65 -232h-32l-142 132
l-270 -132h-35l216 232h198z" />
    <glyph glyph-name="idieresis" horiz-adv-x="573" 
d="M481 242l37 -30q-63 -99 -124 -150q-52 -45 -90 -63t-80 -18q-67 0 -105 38.5t-38 105.5q0 52 20 114l137 420q20 59 20 87q0 23 -19.5 40t-45.5 17q-17 0 -40 -4l14 48l393 55l-231 -724q-9 -28 -9 -41q0 -25 25 -25q37 0 136 130zM340 1301q45 0 78 -37t33 -88
q0 -52 -33 -88.5t-79 -36.5q-47 0 -80 36.5t-33 89.5q0 52 33.5 88t80.5 36zM625 1301q45 0 78 -37t33 -88q0 -52 -33 -88.5t-80 -36.5q-46 0 -79 37t-33 89t33.5 88t80.5 36z" />
    <glyph glyph-name="bullet" unicode="&#x2022;" horiz-adv-x="1365" 
d="M755 978q113 0 196 -83q84 -83 84 -201t-83 -201t-201 -83q-116 0 -199 82q-85 84 -85 202q0 121 84 202q86 82 204 82z" />
    <glyph glyph-name="onehalf" unicode="&#xbd;" horiz-adv-x="1679" 
d="M706 1390l-211 -736q-3 -11 -3 -20q0 -47 51 -47h66l-12 -41h-402l12 41h49q29 0 47 17.5t29 55.5l144 500q12 43 12 69q0 19 -14.5 31.5t-36.5 12.5t-80 -13l-14 38zM1480 1365l-1016 -1365h-140l1017 1365h139zM1233 145h85q104 -4 192 79h44l-99 -224h-392l-15 28
l146 164q145 162 195 241t50 143q0 55 -33 88q-43 43 -96 43q-71 0 -124 -83l-36 17q72 188 228 188q98 0 156 -55q27 -26 45 -69t18 -83q0 -86 -81.5 -193t-282.5 -284z" />
    <glyph glyph-name="perthousand" unicode="&#x2030;" horiz-adv-x="2096" 
d="M1390 1335l-1084 -1335h-140l1086 1335h138zM589 1335q95 0 146 -65q41 -52 41 -130q0 -98 -52.5 -193.5t-139.5 -155.5q-98 -68 -192 -68q-82 0 -129 53q-51 58 -51 140q0 97 52.5 195t135.5 158q93 65 189 66zM575 1290q-75 5 -146 -178q-27 -71 -50.5 -157.5
t-23.5 -116.5q0 -28 17 -46.5t42 -18.5q41 0 81.5 50.5t69.5 138.5q69 205 69 247q0 34 -16.5 56.5t-42.5 24.5zM1165 601q95 0 146 -66q41 -52 41 -129q0 -98 -53 -194t-139 -156q-98 -68 -192 -68q-82 0 -129 53q-51 58 -51 140q0 98 52.5 196t135.5 157q93 66 189 67z
M1151 556q-76 5 -146 -178q-28 -73 -51 -159t-23 -116q0 -28 17 -46.5t42 -18.5q88 0 151 189q69 203 69 248q0 34 -16.5 56.5t-42.5 24.5zM1820 601q95 0 146 -66q41 -51 41 -129q0 -98 -52.5 -194t-139.5 -156q-98 -68 -192 -68q-82 0 -129 53q-51 58 -51 140
q0 98 52.5 196t135.5 157q93 66 189 67zM1806 556q-75 5 -146 -178q-27 -71 -50.5 -158t-23.5 -117q0 -28 17 -46.5t42 -18.5q41 0 81.5 50.5t69.5 138.5q69 204 69 248q0 34 -16 56.5t-43 24.5z" />
    <glyph glyph-name="ocircumflex" horiz-adv-x="904" 
d="M604 916q107 0 179 -76q80 -82 80 -222q0 -163 -83 -311.5t-225 -239.5q-125 -80 -240 -80q-121 0 -197 81q-76 79 -76 211q0 173 95 335q90 153 235 235q122 69 232 67zM563 847q-113 0 -180 -167q-48 -119 -88 -276t-40 -227q0 -55 26.5 -91.5t67.5 -36.5q90 0 155 140
q56 120 100.5 289.5t44.5 263.5q0 48 -22.5 76t-63.5 29zM784 1292l79 -232h-32l-155 132l-284 -132h-35l229 232h198z" />
    <glyph glyph-name="odieresis" horiz-adv-x="904" 
d="M604 916q107 0 179 -76q80 -82 80 -222q0 -163 -83 -311.5t-225 -239.5q-125 -80 -240 -80q-121 0 -197 81q-76 79 -76 211q0 173 95 335q90 153 235 235q122 69 232 67zM563 847q-113 0 -180 -167q-48 -119 -88 -276t-40 -227q0 -55 26.5 -91.5t67.5 -36.5q90 0 155 140
q56 120 100.5 289.5t44.5 263.5q0 48 -22.5 76t-63.5 29zM487 1301q50 0 86.5 -37t36.5 -88q0 -52 -36.5 -88.5t-88.5 -36.5t-88.5 37t-36.5 89t37 88t90 36zM831 1301q50 0 86.5 -37t36.5 -88t-36.5 -88t-88.5 -37t-88.5 36.5t-36.5 89.5q0 52 37 88t90 36z" />
    <glyph glyph-name="brokenbar" unicode="&#xa6;" horiz-adv-x="1024" 
d="M490 1365h176v-713h-176v713zM490 314h176v-655h-176v655z" />
    <glyph glyph-name="asymptoticalequal" horiz-adv-x="1024" 
d="M991 1030l51 -26q-135 -222 -309 -222q-59 0 -186 40q-134 43 -202 43q-52 0 -89 -20t-92 -79l-50 27q79 122 149 172.5t160 50.5q60 0 194 -42q127 -39 184 -39q100 0 190 95zM147 626h861v-107h-861v107z" />
    <glyph glyph-name="ugrave" horiz-adv-x="999" 
d="M878 260l40 -17q-128 -260 -307 -260q-46 0 -76.5 24t-30.5 62q0 37 21 101q8 25 21 73q-121 -155 -186.5 -207.5t-136.5 -52.5q-62 0 -99 43q-32 37 -32 88q0 57 21 129l125 436q8 27 8 50q0 32 -19 51.5t-51 19.5q-9 0 -22 -1l13 45l371 52l-187 -653q-11 -40 -11 -54
q0 -36 31 -36q26 0 52.5 24.5t72.5 90.5q71 102 126 239l111 389h238l-202 -705q-11 -39 -11 -56t15 -17q36 0 105 142zM662 1290l82 -229h-33l-305 229h256z" />
    <glyph glyph-name="ucircumflex" horiz-adv-x="999" 
d="M878 260l40 -17q-128 -260 -307 -260q-46 0 -76.5 24t-30.5 62q0 37 21 101q8 25 21 73q-121 -155 -186.5 -207.5t-136.5 -52.5q-62 0 -99 43q-32 37 -32 88q0 57 21 129l125 436q8 27 8 50q0 32 -19 51.5t-51 19.5q-9 0 -22 -1l13 45l371 52l-187 -653q-11 -40 -11 -54
q0 -36 31 -36q26 0 52.5 24.5t72.5 90.5q71 102 126 239l111 389h238l-202 -705q-11 -39 -11 -56t15 -17q36 0 105 142zM817 1292l79 -232h-32l-155 132l-284 -132h-35l229 232h198z" />
    <glyph glyph-name="udieresis" horiz-adv-x="999" 
d="M878 260l40 -17q-128 -260 -307 -260q-46 0 -76.5 24t-30.5 62q0 37 21 101q8 25 21 73q-121 -155 -186.5 -207.5t-136.5 -52.5q-62 0 -99 43q-32 37 -32 88q0 57 21 129l125 436q8 27 8 50q0 32 -19 51.5t-51 19.5q-9 0 -22 -1l13 45l371 52l-187 -653q-11 -40 -11 -54
q0 -36 31 -36q26 0 52.5 24.5t72.5 90.5q71 102 126 239l111 389h238l-202 -705q-11 -39 -11 -56t15 -17q36 0 105 142zM520 1301q50 0 86.5 -37t36.5 -88q0 -52 -36.5 -88.5t-88.5 -36.5t-88.5 37t-36.5 89t37 88t90 36zM864 1301q50 0 86.5 -37t36.5 -88t-36.5 -88
t-88.5 -37t-88.5 36.5t-36.5 89.5q0 52 37 88t90 36z" />
    <glyph glyph-name="dagger" unicode="&#x2020;" horiz-adv-x="969" 
d="M264 -410h-59q82 294 112 431q74 345 74 510q0 27 -5 90q145 112 186 226q-57 -4 -80 -12t-112 -55q-34 -18 -76 -18q-49 0 -77.5 27t-28.5 73q0 53 37 92q42 43 100 43q36 0 54.5 -8t95.5 -55q48 -28 103 -30q8 51 8 76q0 24 -18 165q-3 22 -3 49q0 68 34 118
q51 73 135 73q49 0 81 -29t32 -74t-24 -89t-98 -134q-37 -45 -53.5 -73.5t-37.5 -81.5q46 4 71.5 11.5t67.5 29.5q63 33 88 42.5t53 9.5q41 0 68.5 -26.5t27.5 -67.5q0 -56 -42 -98q-43 -43 -100 -43q-32 0 -52 8t-109 56q-32 18 -89 21q-1 -22 -1 -36q0 -106 70 -190
q-65 -72 -114.5 -164.5t-123.5 -276.5q-80 -199 -195 -590z" />
    <glyph glyph-name="Gamma" unicode="&#xc3;" horiz-adv-x="1107" 
d="M1331 1365l-81 -323h-37q-6 56 -20.5 88.5t-46.5 63.5q-100 91 -265 91h-96l-320 -1114q-5 -20 -5 -39q0 -39 23.5 -62.5t64.5 -23.5l76 -1l-14 -45h-581l13 45l16 1q53 2 85.5 34t52.5 101l290 1013q6 21 6 40q0 39 -24 62t-64 23l-66 1l13 45h980z" />
    <glyph glyph-name="Delta" unicode="&#xc4;" horiz-adv-x="1195" 
d="M-105 0l1076 1365h56l-77 -1365h-1055zM682 126l50 797l-440 -575q-103 -134 -103 -173q0 -35 54 -44q14 -3 117 -5h322z" />
    <glyph glyph-name="Theta" unicode="&#xc8;" horiz-adv-x="1432" 
d="M978 1384q132 0 243 -55q217 -109 217 -401q0 -271 -157 -520q-122 -193 -316.5 -310t-395.5 -117q-102 0 -189 33t-141 92q-119 131 -119 329q0 280 172 542q148 225 359 327q162 79 327 80zM950 1302q-88 0 -167 -51.5t-139 -148.5q-95 -153 -162 -393
q-68 -242 -68 -391q0 -116 52.5 -186t138.5 -70q103 0 191 71q142 113 243 414q103 310 103 507q0 114 -50.5 179.5t-141.5 68.5zM541 473l124 470h45q-6 -32 -6 -57q0 -97 114 -97q63 0 102.5 36t68.5 118h45l-124 -470h-45q10 40 10 70q0 90 -108 90q-70 0 -111.5 -36.5
t-69.5 -123.5h-45z" />
    <glyph glyph-name="Lambda" unicode="&#xcb;" horiz-adv-x="1087" 
d="M642 928l-536 -709q-46 -61 -46 -102q0 -32 23.5 -52t60.5 -20h33l-14 -45h-361l13 45q60 10 187 174l892 1146h51l-79 -1180q-1 -13 -1 -25q0 -115 79 -115h26l-13 -45h-532l13 45h15q119 5 134 140z" />
    <glyph glyph-name="Xi" unicode="&#xce;" horiz-adv-x="1238" 
d="M924 459h-43q3 35 3 45q0 57 -44.5 87t-129.5 30h-157q-147 1 -209 -162h-43l142 496h44q-4 -33 -4 -45q0 -56 45 -86t129 -30h158q147 -1 208 161h44zM1117 383h38l-175 -383h-955l44 383h38q40 -88 110 -138t154 -50h429q69 0 154.5 50.5t162.5 137.5zM1363 1365
l-99 -344h-37q-13 80 -74 119.5t-171 39.5h-387q-90 0 -160 -39.5t-122 -119.5h-37l98 344h989z" />
    <glyph glyph-name="Pi" unicode="&#xd0;" horiz-adv-x="1581" 
d="M1518 1184l-291 -1013q-6 -20 -6 -40q0 -38 24 -61.5t64 -23.5l51 -1l-13 -45h-621l13 45l76 1q50 0 83.5 33t53.5 102l280 979q6 20 6 40q0 38 -24 61.5t-64 23.5h-262q-50 0 -84 -33t-54 -102l-280 -979q-6 -20 -6 -39q0 -85 88 -86l59 -1l-13 -45h-569l14 45l15 1
q53 2 85.5 34t51.5 101l291 1013q6 21 6 40q0 39 -24 62t-64 23l-45 1l13 45h1321l-13 -45l-25 -1q-51 -1 -84.5 -33.5t-52.5 -101.5z" />
    <glyph glyph-name="germandbls" horiz-adv-x="1126" 
d="M887 854q99 -76 134 -141q52 -96 52 -198q0 -153 -85 -299q-74 -125 -181 -182q-86 -45 -176 -45q-114 0 -204 58q-66 42 -66 117q0 85 84 85q81 0 113 -100q30 -96 107 -96q35 0 69.5 22t53.5 56q55 101 55 307q0 156 -41 234.5t-144 121.5l29 104q23 -2 35 -2
q79 0 134 51q45 41 72 107t27 134q0 71 -38 113.5t-101 42.5q-41 0 -81.5 -20t-65.5 -53q-35 -48 -77.5 -150.5t-77.5 -223.5l-183 -637q-97 -339 -241 -462q-103 -89 -228 -89q-67 0 -111 32.5t-44 82.5q0 40 29.5 67t74.5 27q88 0 88 -76q0 -20 -24 -57q-4 -7 -4 -14
q0 -16 20 -16q36 0 68 61t77 218l231 803q75 262 207 407q63 67 150 105.5t179 38.5q134 0 234 -75q98 -73 98 -197q0 -106 -75 -180q-37 -36 -73 -53.5t-100 -28.5z" />
    <glyph glyph-name="registered" unicode="&#xae;" horiz-adv-x="1543" 
d="M837 1385q291 0 497 -205q99 -99 153 -228q53 -129 53 -268q0 -293 -206 -498q-206 -206 -505 -206q-190 0 -359 104q-169 103 -259 280q-77 150 -77 319q0 198 103 367q101 167 281 259q144 74 319 76zM837 1285q-249 0 -426 -176q-85 -84 -131 -196q-46 -111 -46 -230
q0 -169 89 -315q88 -145 240 -222q130 -66 267 -66q256 0 433 177q177 176 177 427q0 169 -88 314q-87 143 -241 221q-124 64 -274 66zM765 647v-229q0 -48 15 -64.5t58 -16.5h36v-37h-404v37h30q43 0 58 16.5t15 64.5v543q0 48 -15 64.5t-58 16.5h-30v37h379q124 0 200 -48
q92 -60 92 -170q0 -143 -163 -199l138 -229q34 -55 56 -74.5t54 -22.5v-36h-241l-207 347h-13zM765 704q20 -1 30 -1q75 0 111 40.5t36 123.5q0 149 -143 149q-14 0 -34 -1v-311z" />
    <glyph glyph-name="copyright" unicode="&#xa9;" horiz-adv-x="1543" 
d="M837 1385q291 0 497 -205q99 -99 153 -228q53 -129 53 -268q0 -293 -206 -498q-206 -206 -505 -206q-190 0 -359 104q-169 103 -259 280q-77 150 -77 319q0 198 103 367q101 167 281 259q144 74 319 76zM837 1285q-249 0 -426 -176q-85 -84 -131 -196q-46 -111 -46 -230
q0 -169 89 -315q88 -145 240 -222q130 -66 267 -66q256 0 433 177q177 176 177 427q0 169 -88 314q-87 143 -241 221q-124 64 -274 66zM1138 524l47 -47q-124 -188 -350 -188q-128 0 -226 69q-157 110 -157 321q0 189 134 310q112 101 270 101q80 0 175 -36q47 -18 55 -18
q27 0 37 54h40v-260h-40q-23 80 -63 120q-70 68 -169 68q-104 0 -164 -88.5t-60 -243.5q0 -159 58 -245q54 -80 155 -80q154 0 258 163z" />
    <glyph glyph-name="Sigma" unicode="&#xd3;" horiz-adv-x="1164" 
d="M288 1365h971l-91 -318h-42q0 236 -293 234h-247l185 -543l-342 -354q-106 -110 -106 -150q0 -27 23.5 -36t89.5 -9h243q141 0 228.5 42t175.5 152h38l-150 -383h-1006l579 622z" />
    <glyph glyph-name="Idieresis" unicode="&#xda;" horiz-adv-x="823" 
d="M195 181l291 1013q6 21 6 40q0 39 -24 62t-64 23l-45 1l13 45h563l-13 -45l-25 -1q-51 -1 -84 -33.5t-53 -101.5l-290 -1013q-6 -20 -6 -39q0 -85 88 -86l59 -1l-13 -45h-569l14 45l15 1q53 2 85.5 34t51.5 101zM550 1711q52 0 90 -38.5t38 -91.5q0 -54 -38 -92t-92 -38
t-92 38t-38 93q0 54 38.5 91.5t93.5 37.5zM875 1711q52 0 90 -38.5t38 -91.5q0 -54 -38 -92t-92 -38t-92 38t-38 93q0 54 38.5 91.5t93.5 37.5z" />
    <glyph glyph-name="section" unicode="&#xa7;" horiz-adv-x="969" 
d="M587 167q47 -94 47 -172q0 -113 -70 -209q-56 -78 -148 -124q-88 -45 -182 -45q-102 0 -168 51.5t-66 132.5q0 69 41 112q37 38 97 38q46 0 74.5 -27t28.5 -69q0 -36 -30 -84q-21 -34 -21 -50q0 -21 19.5 -36.5t46.5 -15.5q61 0 111 65q53 68 53 167q0 76 -24 126.5
t-96 125.5q-99 103 -140 179.5t-41 158.5q0 109 72.5 200t228.5 179q-48 92 -48 165q0 109 64 199q51 70 132 110.5t172 40.5q144 0 204 -90q34 -52 34 -110q0 -62 -33 -98.5t-90 -36.5q-46 0 -73 25.5t-27 69.5q0 22 4.5 34t33.5 62q7 12 7 32q0 27 -15.5 44.5t-40.5 17.5
q-69 0 -119 -76q-38 -58 -38 -129q0 -58 26.5 -110.5t94.5 -129.5q97 -108 138 -183.5t41 -143.5q0 -155 -177 -305q-39 -34 -123 -91zM450 819q-127 -90 -127 -207q0 -54 27.5 -108t97.5 -140q68 -83 117 -153q38 33 61 61q55 63 55 149q0 104 -117 244q-82 100 -114 154z
" />
    <glyph glyph-name="notequal" horiz-adv-x="969" 
d="M147 430v183h275l55 153h-330v183h397l82 225l182 -66l-58 -159h208v-183h-275l-55 -153h330v-183h-397l-82 -225l-182 66l58 159h-208z" />
    <glyph glyph-name="degree" unicode="&#xb0;" horiz-adv-x="924" 
d="M590 1385q147 0 250 -109q90 -96 90 -236q0 -132 -90 -228q-102 -109 -249 -109q-148 0 -250 109q-90 96 -90 232q0 139 90 232q103 107 249 109zM590 1242q-81 0 -140 -63q-53 -58 -53 -135t53 -135q59 -63 140 -63q82 0 141 63q53 58 53 133q0 80 -53 137
q-59 62 -141 63z" />
    <glyph glyph-name="tonos" horiz-adv-x="1024" 
d="M608 960q6 92 11 223q6 127 35 160q38 42 107 42q49 0 80 -24.5t31 -63.5t-17 -77t-96 -176l-35 -66l-10 -18h-106z" />
    <glyph glyph-name="Alpha" unicode="&#xc1;" horiz-adv-x="1087" 
d="M606 430h-340l-160 -211q-46 -60 -46 -102q0 -32 23.5 -52t60.5 -20h32l-13 -45h-361l13 45q60 10 187 174l892 1146h51l-79 -1180q-1 -13 -1 -25q0 -115 79 -115h26l-13 -45h-532l13 45h15q119 5 134 140zM613 516l29 412l-312 -412h283z" />
    <glyph glyph-name="plusminus" unicode="&#xb1;" horiz-adv-x="969" 
d="M456 913v273h194v-273h308v-183h-308v-273h-194v273h-309v183h309zM958 376v-183h-811v183h811z" />
    <glyph glyph-name="lessequal" horiz-adv-x="1024" 
d="M1007 1293v-115l-550 -351l550 -372v-303l-859 583v16zM148 102h859v-102h-859v102z" />
    <glyph glyph-name="greaterequal" horiz-adv-x="1024" 
d="M148 102h859v-102h-859v102zM148 152v114l550 351l-550 372v304l859 -591v-16z" />
    <glyph glyph-name="yen" unicode="&#xa5;" horiz-adv-x="969" 
d="M841 870h241l-21 -75h-270l-149 -225h334l-22 -75h-334l-85 -297q-20 -69 -20 -94q0 -28 22.5 -45t60.5 -17h47l-12 -42h-543l12 42h52q59 0 90.5 33t57.5 123l85 297h-329l22 75h309l-26 225h-239l21 75h209l-33 277q-13 109 -29.5 140.5t-62.5 35.5l12 42h431l-12 -42
h-25q-42 0 -65.5 -20t-23.5 -55q0 -10 4 -52l56 -548l302 455q74 111 74 157q0 63 -86 63h-11l12 42h346l-12 -42q-59 -7 -102 -45t-114 -145z" />
    <glyph glyph-name="Beta" unicode="&#xc2;" horiz-adv-x="1302" 
d="M847 728q133 -41 201 -99q46 -39 74 -97.5t28 -115.5q0 -133 -98 -254q-75 -92 -195 -133q-85 -29 -172 -29h-672l14 45l31 1q51 1 84.5 33.5t52.5 101.5l291 1013q6 21 6 40q0 39 -24 62t-65 23l-57 1l13 45h510q184 0 284 -62q53 -31 83.5 -89t30.5 -125
q0 -172 -176 -282q-107 -67 -244 -79zM435 79q52 -10 90 -10q164 0 256 129q37 52 60.5 126t23.5 140q0 104 -64 166q-54 53 -163 53q-10 0 -30 -1zM628 753q139 -1 215 51q65 44 105 128q43 90 43 185q0 91 -49.5 133t-158.5 43z" />
    <glyph glyph-name="Epsilon" unicode="&#xc5;" horiz-adv-x="1274" 
d="M615 682l-132 -462q-13 -44 -13 -68q0 -38 31.5 -59t87.5 -21q124 0 264 70.5t270 199.5h39l-137 -342h-993l13 45l14 1q52 2 84.5 34t52.5 101l290 1013q6 21 6 40q0 39 -24 62t-64 23l-52 1l13 45h989l-91 -316h-37q-11 108 -83 169q-49 40 -103.5 55.5t-144.5 15.5
h-106l-152 -532h87q223 -2 318 198h43l-136 -475h-44q7 49 7 70q0 64 -43 98t-123 34h-131z" />
    <glyph glyph-name="Zeta" unicode="&#xc6;" horiz-adv-x="1251" 
d="M1147 376l-138 -376h-1059l13 45l1019 1239h-212q-334 5 -476 -241h-70l117 322h1036v-45l-1028 -1240h165q162 0 289.5 65t290.5 231h53z" />
    <glyph glyph-name="Eta" unicode="&#xc7;" horiz-adv-x="1581" 
d="M610 661l-140 -490q-6 -20 -6 -39q0 -85 88 -86l59 -1l-13 -45h-569l14 45l15 1q53 2 85.5 34t51.5 101l291 1013q6 21 6 40q0 39 -24 62t-64 23l-45 1l13 45h618l-13 -45l-80 -1q-50 0 -83.5 -33t-53.5 -102l-125 -438h479l128 448q6 21 6 40q0 39 -24 62t-64 23l-55 1
l13 45h575l-13 -45l-25 -1q-51 -1 -84.5 -33.5t-52.5 -101.5l-291 -1013q-6 -20 -6 -40q0 -38 24 -61.5t64 -23.5l51 -1l-13 -45h-621l13 45l76 1q50 0 83.5 33t53.5 102l137 480h-479z" />
    <glyph glyph-name="Iota" unicode="&#xc9;" horiz-adv-x="823" 
d="M195 181l291 1013q6 21 6 40q0 39 -24 62t-64 23l-45 1l13 45h563l-13 -45l-25 -1q-51 -1 -84 -33.5t-53 -101.5l-290 -1013q-6 -20 -6 -39q0 -85 88 -86l59 -1l-13 -45h-569l14 45l15 1q53 2 85.5 34t51.5 101z" />
    <glyph glyph-name="Kappa" unicode="&#xca;" horiz-adv-x="1329" 
d="M620 728l-160 -557q-5 -21 -5 -40q0 -39 24 -62t64 -23l65 -1l-13 -45h-569l13 45l20 1q52 2 84.5 34t52.5 101l290 1013q6 21 6 41q0 38 -24 61t-64 23l-65 1l13 45h594l-13 -45l-45 -1q-51 0 -84 -33t-53 -102l-127 -443l395 360q89 81 89 151q0 28 -17.5 48t-41.5 20
h-25l13 45h464l-13 -45q-47 -4 -109 -26q-34 -12 -95.5 -49.5t-92.5 -65.5l-348 -314l220 -678q11 -34 38 -73t50 -54q24 -15 63 -15l-13 -45h-531l13 45h25q37 0 60.5 24t23.5 60q0 27 -12 66z" />
    <glyph glyph-name="Mu" unicode="&#xcc;" horiz-adv-x="1848" 
d="M874 380l701 985h397l-13 -45l-37 -1q-51 -1 -84.5 -33.5t-52.5 -101.5l-291 -1013q-6 -20 -6 -39q0 -85 89 -86l59 -1l-13 -45h-589l13 45l48 1q51 0 86 34t54 101l286 997l-828 -1178h-36l-131 1178l-271 -944q-12 -42 -12 -74q0 -49 35 -78.5t101 -36.5l-13 -45h-366
l13 45q116 16 166 201l290 1009q-25 33 -51 43t-114 22l13 45h449z" />
    <glyph glyph-name="Phi" unicode="&#xd6;" horiz-adv-x="1798" 
d="M1079 0h-570l13 45h17q50 0 81 31t56 105q-146 14 -254 52q-122 44 -190 136q-73 97 -73 234q0 209 154 370q96 100 271.5 159.5t381.5 62.5q6 26 6 42q0 36 -25 59.5t-63 23.5h-45l13 45h564l-13 -45h-25q-50 0 -81.5 -31t-55.5 -105q133 -7 234 -43q165 -58 247 -194
q47 -78 47 -183q0 -178 -128 -336q-87 -106 -215 -165t-326 -84q-75 -9 -150 -9q-6 -27 -6 -42q0 -37 25 -60t63 -23h60zM968 232q240 19 380 196q126 159 126 372q0 263 -253 314zM948 1130q-176 -21 -266 -78q-109 -68 -173 -195t-64 -275q0 -137 63.5 -222t186.5 -112z
" />
    <glyph glyph-name="Ydieresis" unicode="&#xdb;" horiz-adv-x="1096" 
d="M748 692l345 435q45 57 45 108q0 34 -30.5 59.5t-72.5 25.5h-38l13 45h396l-13 -45q-68 -21 -173 -148l-454 -580l-120 -421q-6 -21 -6 -40q0 -39 24 -62t64 -23l73 -1l-13 -45h-637l13 45l67 1q50 0 83.5 33t53.5 102l121 423l-131 523q-27 107 -62 150t-96 43h-26
l13 45h604l-13 -45h-37q-123 0 -123 -114q0 -28 8 -57zM673 1711q52 0 90 -38.5t38 -91.5q0 -54 -38 -92t-92 -38t-92 38t-38 93q0 54 38.5 91.5t93.5 37.5zM1079 1711q52 0 90 -38.5t38 -91.5q0 -54 -38 -92t-92 -38t-92 38.5t-38 92.5t38.5 91.5t93.5 37.5z" />
    <glyph glyph-name="Psi" unicode="&#xd8;" horiz-adv-x="1630" 
d="M1879 1336l-22 -52q-35 15 -55 15q-41 0 -65 -46q-19 -36 -50 -145l-36 -126q-54 -188 -137.5 -287.5t-241.5 -165.5q-162 -64 -326 -77l-80 -281q-6 -20 -6 -39q0 -39 24 -62.5t64 -23.5l73 -1l-13 -45h-610l13 45l44 1q58 1 98 35.5t59 99.5l80 277q-125 11 -189 39
q-134 60 -194 205q-34 81 -34 164q0 66 29 166l34 121q13 44 13 74q0 62 -50 62q-18 0 -52 -10l-5 53q139 58 220 58q69 0 109 -39.5t40 -107.5q0 -53 -54 -243q-42 -147 -42 -227q0 -137 91 -206q33 -25 103 -42l192 669q6 21 6 39q0 39 -29.5 62.5t-79.5 23.5l-46 1l13 45
h564l-12 -45l-25 -1q-52 -1 -85 -33.5t-53 -101.5l-190 -665q99 24 157 56.5t111 93.5q54 62 87.5 137.5t73.5 221.5q60 224 115.5 294.5t170.5 70.5q89 0 198 -57z" />
    <glyph glyph-name="Omega" unicode="&#xd9;" horiz-adv-x="1461" 
d="M44 356h39q25 -86 93.5 -130.5t174.5 -44.5h137q-285 176 -285 462q0 188 106 369q144 245 392 330q122 42 252 42q227 0 357 -124q121 -116 121 -310q0 -315 -321 -591q-130 -112 -275 -178h179q119 0 187.5 36t145.5 139h39l-164 -356h-497l53 184q73 78 123 155
t107 202q62 135 99 278t37 247q0 92 -42 150q-61 84 -183 84q-161 0 -262 -160q-69 -109 -121.5 -313.5t-52.5 -361.5q0 -88 13.5 -144t53.5 -137l-53 -184h-487z" />
    <glyph glyph-name="alphatonos" unicode="&#xdc;" horiz-adv-x="1043" 
d="M771 887h242l-279 -599q3 -110 10.5 -137t32.5 -27q35 0 68.5 38t85.5 135l40 -23q-42 -99 -93 -175q-76 -115 -145 -115q-38 0 -52 69q-4 25 -6 154q-64 -87 -115 -128q-117 -96 -248 -96q-126 0 -195 90q-69 89 -69 235q0 151 73 293q67 131 179 216.5t218 85.5
q81 0 124.5 -41t60.5 -133zM660 617q-12 107 -37 149q-33 57 -94 57q-55 0 -98 -51t-86 -166q-78 -209 -78 -397q0 -159 65 -159q25 0 54 22t51 57q40 65 109 225zM577 960q6 91 12 223q5 127 34 160q38 42 107 42q49 0 80 -24.5t31 -63.5t-17 -77.5t-96 -175.5
q-37 -70 -44 -84h-107z" />
    <glyph glyph-name="Nu" unicode="&#xcd;" horiz-adv-x="1451" 
d="M1128 434l204 714q16 56 16 92q0 79 -125 80l13 45h347l-13 -45q-68 -6 -102 -50t-71 -172l-315 -1098h-43l-519 1158l-265 -924q-12 -42 -12 -74q0 -49 35 -78.5t101 -36.5l-13 -45h-366l13 45q116 16 166 201l286 995q-33 43 -66 60t-87 19l13 45h392z" />
    <glyph glyph-name="logicalnot" unicode="&#xac;" horiz-adv-x="1024" 
d="M735 0v422h-605v124h895v-546h-290z" />
    <glyph glyph-name="Omicron" unicode="&#xcf;" horiz-adv-x="1432" 
d="M978 1384q132 0 243 -55q217 -109 217 -401q0 -271 -157 -520q-122 -193 -316.5 -310t-395.5 -117q-102 0 -189 33t-141 92q-119 131 -119 329q0 280 172 542q148 225 359 327q162 79 327 80zM950 1302q-88 0 -167 -51.5t-139 -148.5q-95 -153 -162 -393
q-68 -242 -68 -391q0 -116 52.5 -186t138.5 -70q103 0 191 71q142 113 243 414q103 310 103 507q0 114 -50.5 179.5t-141.5 68.5z" />
    <glyph glyph-name="Rho" unicode="&#xd1;" horiz-adv-x="1226" 
d="M600 625l-130 -454q-6 -21 -6 -40q0 -39 24 -62t64 -23l80 -1l-13 -45h-583l13 45l10 1q53 4 85 35t52 100l290 1013q6 21 6 40q0 39 -24 62t-64 23l-58 1l13 45h517q178 0 293 -82q56 -40 88 -105t32 -139q0 -156 -125 -278q-152 -147 -409 -147q-59 0 -155 11zM624 708
q42 -10 74 -10q76 0 126 31t90 102q32 58 53 133.5t21 131.5q0 180 -198 192z" />
    <glyph glyph-name="approxequal" horiz-adv-x="1024" 
d="M992 1023l49 -25q-64 -104 -144.5 -161t-165.5 -57q-55 0 -185 41q-133 42 -200 42q-74 0 -123 -43q-12 -10 -40 -39q-7 -6 -20 -19l-48 25q64 97 124 148q86 72 184 72q62 0 194 -41q123 -39 185 -39q103 0 190 96zM992 689l49 -26q-64 -105 -144.5 -161.5t-165.5 -56.5
q-53 0 -185 41q-134 42 -200 42q-74 0 -123 -43q-12 -10 -40 -39q-7 -6 -20 -19l-48 25q147 220 308 220q61 0 194 -42q123 -38 185 -38q102 0 190 97z" />
    <glyph glyph-name="Tau" unicode="&#xd4;" horiz-adv-x="1036" 
d="M893 1278l-318 -1107q-6 -21 -6 -40q0 -39 24.5 -62t64.5 -23l93 -1l-13 -45h-673l13 45l87 1q50 0 83.5 33t53.5 102l314 1097q-248 -14 -386 -251h-49l97 338h981l-97 -338h-53q4 33 4 56q0 93 -79 152q-51 37 -141 43z" />
    <glyph glyph-name="guillemotleft" unicode="&#xab;" horiz-adv-x="845" 
d="M297 471l36 -382h-63l-164 392l380 406h76zM607 471l36 -382h-63l-164 392l380 406h76z" />
    <glyph glyph-name="guillemotright" unicode="&#xbb;" horiz-adv-x="845" 
d="M562 471l-27 416h75l148 -406l-389 -392h-63zM248 471l-27 416h75l148 -406l-389 -392h-63z" />
    <glyph glyph-name="ellipsis" unicode="&#x2026;" horiz-adv-x="1769" 
d="M208 308q65 0 111.5 -47.5t46.5 -113.5q0 -72 -53 -120q-46 -41 -108 -41q-72 0 -120 53q-41 46 -41 109q0 67 47.5 113.5t116.5 46.5zM798 308q68 0 117 -53q41 -46 41 -108q0 -72 -53 -120q-46 -41 -108 -41q-72 0 -120 53q-41 46 -41 109q0 67 47.5 113.5t116.5 46.5z
M1388 308q64 0 111 -47.5t47 -113.5q0 -72 -53 -120q-46 -41 -108 -41q-72 0 -120 53q-41 46 -41 109q0 67 47.5 113.5t116.5 46.5z" />
    <glyph glyph-name="glyph172" horiz-adv-x="969" 
 />
    <glyph glyph-name="Upsilon" unicode="&#xd5;" horiz-adv-x="1096" 
d="M748 692l345 435q45 57 45 108q0 34 -30.5 59.5t-72.5 25.5h-38l13 45h396l-13 -45q-68 -21 -173 -148l-454 -580l-120 -421q-6 -21 -6 -40q0 -39 24 -62t64 -23l73 -1l-13 -45h-637l13 45l67 1q50 0 83.5 33t53.5 102l121 423l-131 523q-27 107 -62 150t-96 43h-26
l13 45h604l-13 -45h-37q-123 0 -123 -114q0 -28 8 -57z" />
    <glyph glyph-name="Chi" unicode="&#xd7;" horiz-adv-x="1189" 
d="M587 543l-280 -303q-71 -77 -71 -123q0 -72 104 -72h27l-13 -45h-427l13 45q113 29 284 218l337 362l-173 523q-44 157 -150 171l-27 1l13 45h550l-13 -45h-29q-32 0 -54 -27t-22 -66q0 -24 23 -94l90 -283l246 267q42 46 57 72.5t15 57.5q0 34 -20 53.5t-55 19.5h-22
l13 45h401l-13 -45q-53 -10 -93 -41q-109 -90 -250 -243l-251 -269l156 -482q57 -174 103 -214q23 -19 74 -26l-13 -45h-552l14 45h25q45 0 74 29.5t29 74.5q0 31 -10 63z" />
    <glyph glyph-name="Alphatonos" unicode="&#xa2;" horiz-adv-x="1087" 
d="M606 430h-340l-160 -211q-46 -60 -46 -102q0 -32 23.5 -52t60.5 -20h32l-13 -45h-361l13 45q60 10 187 174l892 1146h51l-79 -1180q-1 -13 -1 -25q0 -115 79 -115h26l-13 -45h-532l13 45h15q119 5 134 140zM613 516l29 412l-312 -412h283zM185 808q13 120 28 302
q14 173 49 218q45 57 123 57q53 0 85.5 -31t32.5 -81q0 -53 -22 -106t-122 -246q-6 -11 -55 -113h-119z" />
    <glyph glyph-name="Epsilontonos" unicode="&#xb8;" horiz-adv-x="1550" 
d="M185 808q13 120 28 302q14 173 49 218q45 57 123 57q53 0 85.5 -31t32.5 -81q0 -53 -22 -106t-122 -246q-32 -66 -55 -113h-119zM892 682l-133 -462q-12 -42 -12 -68q0 -38 31.5 -59t86.5 -21q125 0 264 70.5t271 199.5h38l-137 -342h-993l13 45l14 1q52 2 84.5 34
t52.5 101l291 1013q5 21 5 40q0 39 -23.5 62t-64.5 23l-52 1l13 45h989l-91 -316h-37q-11 108 -83 169q-48 40 -102.5 55.5t-145.5 15.5h-105l-153 -532h87q223 -2 318 198h43l-136 -475h-44q7 49 7 70q0 64 -43 98t-122 34h-131z" />
    <glyph glyph-name="oe" horiz-adv-x="1099" 
d="M979 264l38 -26q-83 -113 -186 -182t-187 -69q-122 0 -196 107q-41 -49 -97 -77.5t-113 -28.5q-96 0 -155 74t-59 194q0 235 166 451q88 116 206 169q78 36 141 36q78 0 133 -54q37 -37 44 -114q104 165 230 165q64 0 103.5 -46.5t39.5 -121.5q0 -83 -38 -155.5
t-105 -115.5q-91 -60 -271 -89q-19 -73 -19 -118q0 -59 30 -94.5t79 -35.5q46 0 106.5 36.5t109.5 94.5zM686 431q65 19 92 36t56 60q74 107 74 243q0 24 -11.5 39t-30.5 15q-41 0 -84 -94t-96 -299zM499 862q-43 0 -74 -44t-70 -157q-67 -193 -109.5 -353t-42.5 -215
q0 -60 47 -60q44 0 78.5 55.5t79.5 198.5q141 444 141 522q0 52 -50 53z" />
    <glyph glyph-name="endash" unicode="&#x2013;" horiz-adv-x="969" 
d="M848 542l-54 -187h-675l54 187h675z" />
    <glyph glyph-name="emdash" unicode="&#x2014;" horiz-adv-x="1227" 
d="M1226 542l-53 -187h-1174l54 187h1173z" />
    <glyph glyph-name="quotedblleft" unicode="&#x201c;" horiz-adv-x="909" 
d="M672 1392l18 -46q-92 -31 -142 -70.5t-50 -81.5q0 -23 40 -68q47 -52 47 -106q0 -53 -39 -91t-95 -38q-62 0 -102 44t-40 112q0 125 127 228q79 64 236 117zM1041 1392l18 -46q-93 -31 -142.5 -70.5t-49.5 -81.5q0 -23 40 -68q47 -52 47 -106q0 -53 -39 -91t-95 -38
q-62 0 -102 44t-40 112q0 125 127 228q78 64 236 117z" />
    <glyph glyph-name="quotedblright" unicode="&#x201d;" horiz-adv-x="909" 
d="M264 891l-18 46q93 32 142.5 71.5t49.5 80.5q0 23 -40 68q-47 52 -47 106q0 53 39 91t95 38q62 0 102 -44t40 -112q0 -124 -127 -228q-78 -63 -236 -117zM632 891l-17 46q93 32 142.5 71.5t49.5 80.5q0 23 -41 68q-47 52 -47 106q0 53 39.5 91t95.5 38q62 0 102 -44
t40 -112q0 -125 -127 -228q-79 -63 -237 -117z" />
    <glyph glyph-name="quoteleft" unicode="&#x2018;" horiz-adv-x="541" 
d="M672 1392l18 -46q-92 -31 -142 -70.5t-50 -81.5q0 -23 40 -68q47 -52 47 -106q0 -53 -39 -91t-95 -38q-62 0 -102 44t-40 112q0 125 127 228q79 64 236 117z" />
    <glyph glyph-name="quoteright" unicode="&#x2019;" horiz-adv-x="541" 
d="M264 891l-18 46q93 32 142.5 71.5t49.5 80.5q0 23 -40 68q-47 52 -47 106q0 53 39 91t95 38q62 0 102 -44t40 -112q0 -124 -127 -228q-78 -63 -236 -117z" />
    <glyph glyph-name="divide" horiz-adv-x="969" 
d="M958 781v-183h-811v183h811zM551 454q50 0 86 -36.5t36 -87.5t-36.5 -87.5t-87.5 -36.5q-52 0 -88 36.5t-36 88.5q0 51 36.5 87t89.5 36zM551 1162q50 0 86 -36.5t36 -87.5t-36.5 -87.5t-87.5 -36.5q-52 0 -88 36.5t-36 88.5q0 51 36.5 87t89.5 36z" />
    <glyph glyph-name="Etatonos" unicode="&#xb9;" horiz-adv-x="1857" 
d="M185 808q13 120 28 302q14 173 49 218q45 57 123 57q53 0 85.5 -31t32.5 -81q0 -53 -22 -106t-122 -246q-32 -66 -55 -113h-119zM887 661l-141 -490q-5 -20 -5 -39q0 -85 88 -86l59 -1l-14 -45h-568l13 45l16 1q52 2 84.5 34t52.5 101l291 1013q5 21 5 40q0 39 -23.5 62
t-64.5 23l-45 1l13 45h619l-13 -45l-80 -1q-50 0 -83.5 -33t-53.5 -102l-126 -438h479l129 448q6 21 6 40q0 39 -24 62t-64 23l-55 1l13 45h574l-13 -45l-25 -1q-51 -1 -84 -33.5t-53 -101.5l-290 -1013q-6 -20 -6 -40q0 -38 24 -61.5t64 -23.5l51 -1l-13 -45h-622l13 45
l76 1q51 0 84 33t53 102l138 480h-479z" />
    <glyph glyph-name="Iotatonos" unicode="&#xba;" horiz-adv-x="1100" 
d="M185 808q13 120 28 302q14 173 49 218q45 57 123 57q53 0 85.5 -31t32.5 -81q0 -53 -22 -106t-122 -246q-32 -66 -55 -113h-119zM472 181l291 1013q5 21 5 40q0 39 -23.5 62t-64.5 23l-45 1l13 45h564l-13 -45l-25 -1q-51 -1 -84 -33.5t-53 -101.5l-291 -1013
q-5 -20 -5 -39q0 -85 88 -86l59 -1l-14 -45h-568l13 45l16 1q52 2 84.5 34t52.5 101z" />
    <glyph glyph-name="Omicrontonos" unicode="&#xbc;" horiz-adv-x="1668" 
d="M185 808q13 120 28 302q14 173 49 218q45 57 123 57q53 0 85.5 -31t32.5 -81q0 -53 -22 -106t-122 -246q-32 -66 -55 -113h-119zM1214 1384q132 0 243 -55q217 -109 217 -401q0 -271 -157 -520q-122 -193 -316.5 -310t-395.5 -117q-102 0 -189 33t-141 92
q-119 131 -119 329q0 280 172 542q148 225 359 327q162 78 327 80zM1186 1302q-88 0 -167 -51.5t-139 -148.5q-95 -153 -162 -393q-68 -241 -68 -391q0 -116 52.5 -186t138.5 -70q103 0 191 71q142 113 243 414q103 310 103 507q0 114 -50.5 179.5t-141.5 68.5z" />
    <glyph glyph-name="Upsilontonos" unicode="&#xbe;" horiz-adv-x="1291" 
d="M21 808q13 120 28 302q14 173 49 218q45 57 123 57q53 0 85.5 -31t32.5 -81q0 -53 -22 -106t-122 -246q-32 -66 -55 -113h-119zM942 692l345 435q45 57 45 108q0 34 -30.5 59.5t-71.5 25.5h-39l13 45h396l-13 -45q-68 -21 -173 -148l-453 -580l-121 -421q-6 -21 -6 -40
q0 -39 24 -62t64 -23l73 -1l-13 -45h-637l14 45l66 1q51 0 84.5 33t52.5 102l122 423l-131 523q-27 107 -62 150t-96 43h-26l13 45h604l-13 -45h-38q-122 0 -122 -114q0 -28 7 -57z" />
    <glyph glyph-name="epsilontonos" unicode="&#xdd;" horiz-adv-x="818" 
d="M691 305l39 -22q-33 -72 -67 -119q-67 -93 -151 -136.5t-196 -43.5q-132 0 -214 63q-89 69 -89 177q0 125 120 210q47 33 133 62q-103 74 -103 167q0 91 87 154q119 86 312 86q132 0 194 -49q53 -43 53 -101q0 -46 -31 -75.5t-79 -29.5q-45 0 -80.5 29.5t-35.5 67.5
q0 6 8 34q1 4 1 10q0 46 -48 46q-37 0 -76.5 -26t-65.5 -67q-50 -82 -50 -189v-28q16 4 45 11q80 21 130 21q41 0 70 -21t29 -51q0 -38 -39 -64t-95 -26q-74 0 -167 55q-73 -96 -73 -189q0 -72 43.5 -117t112.5 -45q164 0 283 206zM505 960q6 92 11 223q6 128 35 160
q38 42 107 42q49 0 80 -24.5t31 -63.5t-17 -77t-96 -176l-35 -66l-10 -18h-106z" />
    <glyph glyph-name="etatonos" unicode="&#xde;" horiz-adv-x="978" 
d="M30 590q66 138 141 212q102 102 200 102q53 0 87.5 -32.5t34.5 -82.5q0 -29 -23 -114l-32 -118q87 164 161 241q102 105 190 105q61 0 96.5 -39t35.5 -106q0 -49 -20 -120l-285 -993h-242l270 944q22 76 22 104q0 36 -32 36q-42 0 -92 -74q-53 -77 -98.5 -161.5
t-58.5 -129.5l-104 -364h-247l180 598q25 86 25 113q0 38 -28 38q-55 0 -146 -178zM585 960q7 92 12 223q5 128 34 160q38 42 107 42q49 0 80 -24.5t31 -63.5t-17 -76.5t-96 -176.5l-34 -66l-10 -18h-107z" />
    <glyph glyph-name="iotatonos" unicode="&#xdf;" horiz-adv-x="573" 
d="M482 245l37 -30q-63 -99 -124 -150q-52 -45 -90 -63t-80 -18q-67 0 -105 38t-38 106q0 52 20 113l137 421q20 59 20 87q0 23 -19.5 40t-45.5 17q-17 0 -40 -4l14 48l393 55l-231 -724q-9 -28 -9 -41q0 -25 25 -25q37 0 136 130zM383 960q6 92 11 223q5 128 35 160
q38 42 107 42q49 0 80 -24.5t31 -63.5t-17 -77t-96 -176l-35 -66l-10 -18h-106z" />
    <glyph glyph-name="omicrontonos" unicode="&#xfc;" horiz-adv-x="904" 
d="M600 903q107 0 180 -75q80 -82 80 -221q0 -161 -82.5 -308t-223.5 -236q-125 -79 -241 -79q-120 0 -197 80q-76 79 -76 209q0 172 94 331q90 151 234 232q122 69 232 67zM559 835q-113 0 -180 -165q-47 -119 -86.5 -273.5t-39.5 -223.5q0 -55 26.5 -91t67.5 -36
q90 0 155 138q55 119 99 286t44 260q0 48 -23 76t-63 29zM549 960q6 92 11 223q5 128 34 160q39 42 108 42q49 0 80 -24.5t31 -63.5t-17 -77t-96 -176l-35 -66l-10 -18h-106z" />
    <glyph glyph-name="Omegatonos" unicode="&#xbf;" horiz-adv-x="1697" 
d="M185 808q13 120 28 302q14 173 49 218q45 57 123 57q53 0 85.5 -31t32.5 -81q0 -53 -22 -106t-122 -246q-32 -66 -55 -113h-119zM280 356h38q25 -86 93.5 -130.5t175.5 -44.5h137q-286 176 -286 462q0 188 106 369q144 245 393 330q122 42 252 42q226 0 356 -124
q122 -116 122 -310q0 -315 -321 -591q-130 -112 -275 -178h179q118 0 187 36t146 139h39l-164 -356h-497l52 184q74 78 124.5 155.5t106.5 201.5q62 136 99 278.5t37 246.5q0 92 -42 150q-61 84 -183 84q-162 0 -263 -160q-68 -109 -121 -313.5t-53 -361.5q0 -88 13.5 -144
t54.5 -137l-53 -184h-487z" />
    <glyph glyph-name="upsilontonos" unicode="&#xfd;" horiz-adv-x="920" 
d="M42 609q52 109 101 166q51 59 116.5 93.5t124.5 34.5q54 0 85.5 -31.5t31.5 -85.5q0 -50 -19 -117l-105 -365q-21 -73 -21 -120q0 -49 29 -81t72 -32q101 0 188 133q47 70 75 148.5t28 137.5q0 60 -27 127q-6 15 -46 63q-35 43 -35 95q0 36 16 66q32 62 100 62
q64 0 98 -52t34 -150q0 -200 -119 -431q-146 -286 -388 -286q-146 0 -206 91q-42 63 -42 136q0 53 17.5 128.5t74.5 264.5q29 98 29 124q0 27 -26 27q-49 0 -143 -174zM556 960q6 92 11 223q5 128 35 160q38 42 107 42q49 0 80 -24.5t31 -63.5t-17 -77t-96 -176l-35 -66
l-10 -18h-106z" />
    <glyph glyph-name="alpha" unicode="&#xe1;" horiz-adv-x="1043" 
d="M771 887h242l-279 -599q3 -110 10.5 -137t32.5 -27q35 0 68.5 38t85.5 135l40 -23q-42 -99 -93 -175q-76 -115 -145 -115q-38 0 -52 69q-4 25 -6 154q-64 -87 -115 -128q-117 -96 -248 -96q-126 0 -195 90q-69 89 -69 235q0 151 73 293q67 131 179 216.5t218 85.5
q81 0 124.5 -41t60.5 -133zM660 617q-12 107 -37 149q-33 57 -94 57q-55 0 -98 -51t-86 -166q-78 -209 -78 -397q0 -159 65 -159q25 0 54 22t51 57q40 65 109 225z" />
    <glyph glyph-name="beta" unicode="&#xe2;" horiz-adv-x="976" 
d="M-109 -355l358 1249q83 288 216 385q118 86 278 86q135 0 204 -69q56 -56 56 -143q0 -174 -260 -316q88 -56 127.5 -127.5t39.5 -174.5q0 -190 -130 -353q-55 -68 -123 -117q-113 -82 -231 -82q-55 0 -91.5 24.5t-78.5 88.5l-129 -451h-236zM278 174q36 -65 62.5 -87.5
t67.5 -22.5q71 0 126 86q47 72 95 240q63 223 63 351q0 25 -1 61q-77 -50 -118 -50q-27 0 -45.5 16t-18.5 40q0 32 27 54.5t67 22.5q39 0 104 -27q97 187 97 317q0 56 -21 89t-57 33q-69 0 -131 -90q-21 -29 -43 -93.5t-73 -240.5z" />
    <glyph glyph-name="psi" unicode="&#xf8;" horiz-adv-x="1322" 
d="M42 608q69 142 159 218q92 78 173 78q55 0 89 -32.5t34 -84.5q0 -44 -22 -122l-49 -170q-41 -143 -49 -179.5t-8 -79.5q0 -79 38.5 -125.5t105.5 -48.5l237 825h190l-213 -836q134 23 205 73q89 62 152.5 179t63.5 216q0 39 -9.5 65.5t-39.5 75.5q-42 66 -42 118
q0 53 34 89t84 36q58 0 91 -41.5t33 -114.5q0 -138 -53 -290.5t-137 -258.5q-75 -94 -166.5 -141.5t-232.5 -67.5l-87 -344h-229l101 355q-62 0 -101 8.5t-92 34.5q-71 34 -110.5 95.5t-39.5 137.5q0 73 67 307l19 66q18 64 18 81q0 27 -22 27q-26 0 -68.5 -49t-82.5 -125z
" />
    <glyph glyph-name="delta" unicode="&#xe4;" horiz-adv-x="898" 
d="M886 1103l-52 -18q-53 115 -121 168q-69 53 -139 53q-35 0 -57.5 -20t-22.5 -51q0 -27 19.5 -55.5t111.5 -140.5q119 -143 167 -247t48 -220q0 -217 -144 -394q-60 -73 -136 -122q-115 -73 -238 -73q-102 0 -177 68q-46 41 -73 110.5t-27 147.5q0 151 80 292
q65 115 154.5 182.5t212.5 94.5q-46 67 -61 88q-75 105 -98 150.5t-23 90.5q0 91 81 137q66 38 154 38q243 0 341 -279zM525 826q-51 -23 -82 -58t-64 -109q-48 -105 -84 -251.5t-36 -233.5q0 -56 23.5 -90t62.5 -34q111 0 181 197q67 189 67 336q0 64 -12 107t-56 136z" />
    <glyph glyph-name="epsilon" unicode="&#xe5;" horiz-adv-x="818" 
d="M691 305l39 -22q-33 -72 -67 -119q-67 -93 -151 -136.5t-196 -43.5q-132 0 -214 63q-89 69 -89 177q0 125 120 210q47 33 133 62q-103 74 -103 167q0 91 87 154q119 86 312 86q132 0 194 -49q53 -43 53 -101q0 -46 -31 -75.5t-79 -29.5q-45 0 -80.5 29.5t-35.5 67.5
q0 6 8 34q1 4 1 10q0 46 -48 46q-37 0 -76.5 -26t-65.5 -67q-50 -82 -50 -189v-28q16 4 45 11q80 21 130 21q41 0 70 -21t29 -51q0 -38 -39 -64t-95 -26q-74 0 -167 55q-73 -96 -73 -189q0 -72 43.5 -117t112.5 -45q164 0 283 206z" />
    <glyph glyph-name="phi" unicode="&#xf6;" horiz-adv-x="1274" 
d="M308 -355l101 353q-116 8 -181 43q-174 95 -174 318q0 216 153 364q164 160 462 181q25 92 29.5 127.5t11.5 203.5q4 84 79 125q36 19 67 19q48 0 81 -38.5t33 -93.5q0 -26 -13 -61.5t-56 -124.5q-31 -67 -62 -169q79 -2 130.5 -16.5t104.5 -49.5q42 -28 73 -70
q68 -93 68 -214q0 -156 -84 -286q-53 -84 -142.5 -147.5t-197.5 -94.5q-67 -19 -179 -30l-85 -339h-219zM427 60l223 778q-71 -11 -118.5 -34t-93.5 -67q-74 -71 -122 -194.5t-48 -241.5q0 -83 33 -145q23 -43 49.5 -62.5t76.5 -33.5zM627 50q77 16 123 43q122 71 187 218
q63 144 63 283q0 100 -52 168q-42 53 -124 67z" />
    <glyph glyph-name="gamma" unicode="&#xe3;" horiz-adv-x="888" 
d="M49 603q36 87 82 150q107 151 217 151q170 0 170 -312q0 -186 -49 -430q28 33 56 64l65 77q103 120 137 179t34 117q0 38 -24 114q-11 34 -11 66q0 50 34.5 87t81.5 37q49 0 80 -36.5t31 -92.5q0 -156 -178 -375q-64 -79 -266 -294l-55 -59q-50 -221 -97 -313
q-27 -54 -69.5 -85.5t-88.5 -31.5q-48 0 -74.5 26.5t-26.5 75.5q0 73 39.5 153t131.5 195q28 256 28 406q0 287 -62 287q-30 0 -73.5 -52.5t-73.5 -124.5z" />
    <glyph glyph-name="eta" unicode="&#xe7;" horiz-adv-x="978" 
d="M30 590q66 138 141 212q102 102 200 102q53 0 87.5 -32.5t34.5 -82.5q0 -29 -23 -114l-32 -118q87 164 161 241q102 105 190 105q61 0 96.5 -39t35.5 -106q0 -49 -20 -120l-285 -993h-242l270 944q22 76 22 104q0 36 -32 36q-42 0 -92 -74q-53 -77 -98.5 -161.5
t-58.5 -129.5l-104 -364h-247l180 598q25 86 25 113q0 38 -28 38q-55 0 -146 -178z" />
    <glyph glyph-name="iota" unicode="&#xe9;" horiz-adv-x="573" 
d="M482 245l37 -30q-63 -99 -124 -150q-52 -45 -90 -63t-80 -18q-67 0 -105 38t-38 106q0 52 20 113l137 421q20 59 20 87q0 23 -19.5 40t-45.5 17q-17 0 -40 -4l14 48l393 55l-231 -724q-9 -28 -9 -41q0 -25 25 -25q37 0 136 130z" />
    <glyph glyph-name="xi" unicode="&#xee;" horiz-adv-x="871" 
d="M566 1495l14 -44q-124 -56 -124 -129q0 -59 68 -106q110 65 187 90t170 25q71 0 107 -23q44 -30 44 -77q0 -62 -67.5 -99t-180.5 -37q-111 0 -253 54q-70 -124 -70 -245q0 -43 20 -108q152 68 266 68q136 0 136 -98q0 -61 -56 -91q-53 -30 -141 -30q-57 0 -105.5 14.5
t-127.5 55.5q-69 -62 -108 -124q-91 -144 -91 -282q0 -71 32.5 -100t110.5 -29q28 0 84 8q59 8 95 8q71 0 109 -39.5t38 -112.5q0 -158 -142 -292q-66 -62 -149 -98t-160 -36q-67 0 -106 30.5t-39 83.5q0 59 36.5 94t98.5 35q44 0 115 -41q41 -24 85 -24q30 0 56 12
q37 17 59.5 51.5t22.5 72.5q0 76 -78 76q-26 0 -72 -8q-77 -12 -123 -12q-100 0 -176 46q-115 69 -115 216q0 217 206 400q65 58 160 105q-60 40 -86 80t-26 90q0 42 26.5 94t69.5 94q28 27 88 64q-83 38 -115 66.5t-32 65.5q0 103 239 186z" />
    <glyph glyph-name="kappa" unicode="&#xea;" horiz-adv-x="1031" 
d="M589 575l137 -332q30 -71 44.5 -90.5t39.5 -19.5q30 0 52.5 22t59.5 88l39 -23q-64 -120 -101 -163q-58 -68 -155 -68q-56 0 -92 28.5t-64 95.5l-144 349l-133 -462h-230l189 659q19 71 19 86q0 24 -19 41t-46 17q-16 0 -39 -4l14 48l372 58l-123 -428q47 45 92 92
q154 155 216.5 209t131.5 91q65 34 138 34q51 0 80.5 -22.5t29.5 -62.5q0 -56 -40 -87t-110 -31q-35 0 -56 5q-81 17 -83 17q-52 0 -156 -89q-15 -13 -63 -58z" />
    <glyph glyph-name="lambda" unicode="&#xeb;" horiz-adv-x="848" 
d="M-127 0l663 914q4 39 4 58q0 52 -17 80t-78 80q-60 50 -60 109q0 65 34.5 102.5t93.5 37.5q67 0 103.5 -41.5t36.5 -116.5q0 -40 -13 -130q-27 -191 -52.5 -468.5t-25.5 -378.5q0 -94 72 -94q32 0 58 22t74 88l34 -17q-48 -121 -112 -191t-125 -70q-97 0 -97 168
q0 177 37 374l-353 -526h-277z" />
    <glyph glyph-name="mu" unicode="&#xec;" horiz-adv-x="944" 
d="M91 37q-4 -48 -4 -91q0 -74 14 -151q6 -36 6 -64q0 -48 -33.5 -80.5t-83.5 -32.5t-80 30.5t-30 80.5q0 73 64 199q45 88 56 122t98 332l146 510h239l-186 -649q-12 -40 -12 -54q0 -37 31 -37q26 0 52.5 24.5t72.5 90.5q72 104 126 240l111 385h237l-200 -701
q-12 -41 -12 -55q0 -17 15 -17q35 0 105 141l41 -17q-129 -259 -308 -259q-46 0 -76.5 24t-30.5 61q0 38 21 102q8 24 22 72q-103 -130 -157 -181q-85 -79 -160 -79q-51 0 -84 54z" />
    <glyph glyph-name="nu" unicode="&#xed;" horiz-adv-x="791" 
d="M467 242q237 227 237 337q0 41 -36 91q-32 43 -42 66t-10 54q0 46 30 79.5t72 33.5q55 0 94.5 -45t39.5 -107q0 -50 -27 -123t-68 -136q-120 -181 -367 -400q-68 -61 -110 -106l-67 14q19 100 25 202.5t6 316.5q0 84 -10 195q-5 56 -28 56q-27 0 -60 -50.5t-56 -124.5
l-55 28q20 69 46 117q43 77 100.5 120t118.5 43q114 0 152 -137q22 -80 22 -273q0 -55 -7 -251z" />
    <glyph glyph-name="omicron" unicode="&#xef;" horiz-adv-x="904" 
d="M600 903q107 0 180 -75q80 -82 80 -221q0 -161 -82.5 -308t-223.5 -236q-125 -79 -241 -79q-120 0 -197 80q-76 79 -76 209q0 172 94 331q90 151 234 232q122 69 232 67zM559 835q-113 0 -180 -165q-47 -119 -86.5 -273.5t-39.5 -223.5q0 -55 26.5 -91t67.5 -36
q90 0 155 138q55 119 99 286t44 260q0 48 -23 76t-63 29z" />
    <glyph glyph-name="pi" unicode="&#xf0;" horiz-adv-x="1061" 
d="M101 577l-38 24q38 96 69.5 147t78.5 89q67 56 151 56q30 0 70 -2l441 -18q30 -1 66 -1q83 0 123.5 23.5t86.5 98.5l36 -23q-71 -154 -120 -206q-43 -44 -75 -57.5t-101 -16.5l-146 -513q-8 -29 -8 -40q0 -26 26 -26q37 0 132 130l38 -30q-61 -98 -119 -148
q-92 -80 -165 -80q-65 0 -101 40t-36 111q0 45 17 104l131 453l-193 10l-103 -358q-39 -136 -58 -185.5t-46 -86.5q-63 -86 -140 -86q-102 0 -102 129q0 70 40 183l43 -7q-8 -44 -8 -65q0 -32 14.5 -51t38.5 -19q41 0 76 59.5t74 192.5l84 294q-61 5 -93 5q-74 0 -111 -26
t-73 -104z" />
    <glyph glyph-name="omegatonos" unicode="&#xfe;" horiz-adv-x="1257" 
d="M725 960q6 91 11 223q5 127 35 160q38 42 107 42q49 0 80 -24.5t31 -63.5t-17 -76.5t-96 -176.5q-26 -49 -45 -84h-106zM420 901l86 -28q-91 -128 -157.5 -316.5t-66.5 -320.5q0 -86 30 -128q28 -39 62 -39q73 0 194 142q-19 122 -19 196q0 136 56 221q21 33 55 53.5
t67 20.5q44 0 71 -35.5t27 -94.5q0 -83 -40.5 -170.5t-135.5 -211.5q54 -138 132 -138q55 0 115.5 45.5t108.5 122.5q81 132 81 253q0 68 -36 123q-11 17 -80 92q-36 40 -36 99q0 49 33.5 82.5t82.5 33.5q71 0 112.5 -64.5t41.5 -175.5q0 -127 -43 -270t-110 -235
q-126 -174 -272 -174q-65 0 -104.5 32t-81.5 119q-143 -152 -277 -152q-151 0 -217 119q-47 87 -47 201q0 116 46 229t130 204q71 78 192 165z" />
    <glyph glyph-name="rho" unicode="&#xf1;" horiz-adv-x="930" 
d="M-109 -355l221 770q54 190 88 260t97 124q124 104 287 104q175 0 251 -144q43 -82 43 -185q0 -184 -118 -359q-71 -107 -166 -169.5t-185 -62.5q-115 0 -162 99l-125 -437h-231zM269 158q45 -95 106 -95q105 0 180 213q87 249 87 422q0 137 -84 137q-50 0 -92 -56
q-30 -40 -76 -200z" />
    <glyph glyph-name="sigma" unicode="&#xf3;" horiz-adv-x="949" 
d="M1067 1024l42 -14q-27 -91 -49 -138q-35 -71 -66 -115q-52 -72 -119 -72q-25 0 -40 6t-71 39q-50 30 -103 54q87 -85 124 -160.5t37 -167.5q0 -193 -151 -336q-54 -49 -121 -84q-106 -53 -217 -53q-113 0 -193 75q-100 93 -100 252q0 101 36 206.5t98 185.5
q81 104 180.5 153t230.5 49l231 -32h28q71 0 94 5t49 27q42 37 80 120zM597 796q-46 14 -72 14q-64 0 -112 -57t-87 -181q-28 -88 -47 -193t-19 -169q0 -159 101 -159t164 157q37 90 63.5 219.5t26.5 215.5q0 40 -6 85q-10 67 -12 68z" />
    <glyph glyph-name="tau" unicode="&#xf4;" horiz-adv-x="834" 
d="M77 577l-37 24q38 96 69.5 147t77.5 89q70 57 160 57q32 0 62 -3l209 -18q37 -3 71 -3q100 0 151.5 24.5t107.5 99.5l36 -23q-78 -159 -142 -213q-50 -44 -90 -57.5t-120 -15.5l-144 -507q-8 -27 -8 -40q0 -26 26 -26q37 0 131 130l38 -30q-139 -228 -283 -228
q-65 0 -101 40t-36 111q0 47 16 104l133 460q-84 12 -137 12q-77 0 -114.5 -27t-75.5 -107z" />
    <glyph glyph-name="theta" unicode="&#xe8;" horiz-adv-x="918" 
d="M687 1382q155 0 223 -95q64 -89 64 -236q0 -145 -53.5 -362.5t-130.5 -383.5q-74 -161 -201 -248q-106 -74 -237 -74q-149 0 -220 105q-60 88 -60 242q0 92 33.5 253t81.5 301q87 252 207 372t293 126zM374 692q-57 -231 -75.5 -330t-18.5 -179q0 -57 19 -88
q24 -41 70 -41q97 0 163 154q61 145 149 484h-307zM394 769h302q68 275 68 414q0 130 -85 130q-82 0 -142 -114t-143 -430z" />
    <glyph glyph-name="omega" unicode="&#xf9;" horiz-adv-x="1257" 
d="M420 901l86 -28q-91 -128 -157.5 -316.5t-66.5 -320.5q0 -86 30 -128q28 -39 62 -39q73 0 194 142q-19 122 -19 196q0 136 56 221q21 33 55 53.5t67 20.5q44 0 71 -35.5t27 -94.5q0 -83 -40.5 -170.5t-135.5 -211.5q54 -138 132 -138q55 0 115.5 45.5t108.5 122.5
q81 132 81 253q0 68 -36 123q-11 17 -80 92q-36 40 -36 99q0 49 33.5 82.5t82.5 33.5q71 0 112.5 -64.5t41.5 -175.5q0 -127 -43 -270t-110 -235q-126 -174 -272 -174q-65 0 -104.5 32t-81.5 119q-143 -152 -277 -152q-151 0 -217 119q-47 87 -47 201q0 116 46 229t130 204
q71 78 192 165z" />
    <glyph glyph-name="sigma1" unicode="&#xf2;" horiz-adv-x="833" 
d="M915 1024l41 -12q-42 -139 -79 -202q-63 -110 -176 -110q-33 0 -129 11q-58 7 -106 7q-74 0 -107 -18.5t-55 -71.5t-38 -149t-16 -173q0 -125 106 -125q28 0 62 6q56 9 84 9q158 0 158 -151q0 -159 -142 -293q-66 -62 -149 -98t-160 -36q-67 0 -106 30.5t-39 83.5
q0 59 36.5 94t98.5 35q28 0 48.5 -7t66.5 -34q41 -24 85 -24q30 0 56 12q37 17 59.5 51.5t22.5 73.5q0 75 -79 75q-32 0 -85 -10q-49 -10 -81 -10q-120 0 -193 77q-67 70 -67 206q0 104 44 197t146 207q194 215 373 215q30 0 82 -8q38 -6 62 -6q57 0 97 34t79 114z" />
    <glyph glyph-name="chi" unicode="&#xf7;" horiz-adv-x="906" 
d="M944 887l-483 -660q1 -207 20 -313q24 -143 97 -143q77 0 146 164l43 -18q-37 -102 -80 -168q-85 -132 -158 -132q-87 0 -112 177q-24 162 -24 344l-350 -493h-228l530 720q-1 108 -23 242q-9 45 -30.5 62t-95.5 35q-89 23 -89 103q0 45 30.5 71t85.5 26q105 0 140.5 -87
t45.5 -374l311 444h224z" />
    <glyph glyph-name="upsilon" unicode="&#xf5;" horiz-adv-x="920" 
d="M42 609q52 109 101 166q51 59 116.5 93.5t124.5 34.5q54 0 85.5 -31.5t31.5 -85.5q0 -50 -19 -117l-105 -365q-21 -73 -21 -120q0 -49 29 -81t72 -32q101 0 188 133q47 70 75 148.5t28 137.5q0 60 -27 127q-6 15 -46 63q-35 43 -35 95q0 36 16 66q32 62 100 62
q64 0 98 -52t34 -150q0 -200 -119 -431q-146 -286 -388 -286q-146 0 -206 91q-42 63 -42 136q0 53 17.5 128.5t74.5 264.5q29 98 29 124q0 27 -26 27q-49 0 -143 -174z" />
    <glyph glyph-name="zeta" unicode="&#xe6;" horiz-adv-x="831" 
d="M574 1492l9 -37q-79 -45 -106 -76t-27 -77q0 -63 65 -125q210 161 377 161q54 0 84 -20q43 -29 43 -80q0 -70 -85.5 -113.5t-222.5 -43.5q-94 0 -176 32q-107 -165 -167 -344q-35 -104 -63 -254t-28 -232q0 -48 27 -75.5t75 -27.5q21 0 68 8q52 8 94 8q149 0 149 -152
q0 -158 -142 -292q-66 -62 -149 -98t-160 -36q-67 0 -106 30.5t-39 83.5q0 59 36.5 94t98.5 35q44 0 115 -41q41 -24 85 -24q30 0 56 12q37 17 59.5 51.5t22.5 73.5q0 75 -85 75q-30 0 -98 -15q-26 -5 -74 -5q-134 0 -197 65t-63 204q0 130 47 287t127 291q103 172 247 300
q-61 29 -90 54q-62 54 -62 104q0 48 69.5 102.5t185.5 96.5z" />
    <glyph glyph-name="iotadieresis" unicode="&#xfa;" horiz-adv-x="573" 
d="M482 245l37 -30q-63 -99 -124 -150q-52 -45 -90 -63t-80 -18q-67 0 -105 38t-38 106q0 52 20 113l137 421q20 59 20 87q0 23 -19.5 40t-45.5 17q-17 0 -40 -4l14 48l393 55l-231 -724q-9 -28 -9 -41q0 -25 25 -25q37 0 136 130zM349 1301q50 0 86.5 -37t36.5 -88
q0 -52 -36.5 -88.5t-88.5 -36.5t-88.5 37t-36.5 89t37 88t90 36zM638 1301q50 0 86.5 -37t36.5 -88q0 -52 -36.5 -88.5t-88.5 -36.5t-88.5 36.5t-36.5 89.5q0 52 37 88t90 36z" />
    <glyph glyph-name="upsilondieresis" unicode="&#xfb;" horiz-adv-x="920" 
d="M42 609q52 109 101 166q51 59 116.5 93.5t124.5 34.5q54 0 85.5 -31.5t31.5 -85.5q0 -50 -19 -117l-105 -365q-21 -73 -21 -120q0 -49 29 -81t72 -32q101 0 188 133q47 70 75 148.5t28 137.5q0 60 -27 127q-6 15 -46 63q-35 43 -35 95q0 36 16 66q32 62 100 62
q64 0 98 -52t34 -150q0 -200 -119 -431q-146 -286 -388 -286q-146 0 -206 91q-42 63 -42 136q0 53 17.5 128.5t74.5 264.5q29 98 29 124q0 27 -26 27q-49 0 -143 -174zM494 1301q50 0 86.5 -37t36.5 -88q0 -52 -36.5 -88.5t-88.5 -36.5t-88.5 37t-36.5 89t37 88t90 36z
M839 1301q50 0 86.5 -37t36.5 -88q0 -52 -36.5 -88.5t-88.5 -36.5t-88.5 36.5t-36.5 89.5q0 52 37 88t90 36z" />
    <glyph glyph-name="iotadieresistonos" unicode="&#xc0;" horiz-adv-x="573" 
d="M482 245l37 -30q-63 -99 -124 -150q-52 -45 -90 -63t-80 -18q-67 0 -105 38t-38 106q0 52 20 113l137 421q20 59 20 87q0 23 -19.5 40t-45.5 17q-17 0 -40 -4l14 48l393 55l-231 -724q-9 -28 -9 -41q0 -25 25 -25q37 0 136 130zM448 1190q0 12 1 58l-8 105q0 68 23 92
q29 29 80 29q38 0 61.5 -17t23.5 -45t-12.5 -52.5t-73.5 -114.5q-2 -3 -34 -55h-61zM294 1193q45 0 78 -33.5t33 -78.5q0 -47 -33 -80t-79 -33q-47 0 -80 33t-33 80t33.5 79.5t80.5 32.5zM638 1193q45 0 78 -33.5t33 -78.5q0 -47 -33 -80t-80 -33q-46 0 -79 33t-33 80
t33.5 79.5t80.5 32.5z" />
    <glyph glyph-name="upsilondieresisacute" unicode="&#xe0;" horiz-adv-x="920" 
d="M42 609q52 109 101 166q51 59 116.5 93.5t124.5 34.5q54 0 85.5 -31.5t31.5 -85.5q0 -50 -19 -117l-105 -365q-21 -73 -21 -120q0 -49 29 -81t72 -32q101 0 188 133q47 70 75 148.5t28 137.5q0 60 -27 127q-6 15 -46 63q-35 43 -35 95q0 36 16 66q32 62 100 62
q64 0 98 -52t34 -150q0 -200 -119 -431q-146 -286 -388 -286q-146 0 -206 91q-42 63 -42 136q0 53 17.5 128.5t74.5 264.5q29 98 29 124q0 27 -26 27q-49 0 -143 -174zM621 1190q0 12 1 58l-8 105q0 68 23 92q28 29 80 29q38 0 61.5 -17t23.5 -45t-12.5 -52.5t-73.5 -114.5
q-3 -4 -34 -55h-61zM466 1193q45 0 78 -33.5t33 -78.5q0 -47 -33 -80t-80 -33q-46 0 -79 33t-33 80t33.5 79.5t80.5 32.5zM811 1193q45 0 78 -33.5t33 -78.5q0 -47 -33 -80t-80 -33q-46 0 -79 33t-33 80t33.5 79.5t80.5 32.5z" />
    <glyph glyph-name="glyph225" 
 />
    <glyph glyph-name="glyph226" 
 />
    <glyph glyph-name="glyph227" 
 />
    <glyph glyph-name="glyph228" 
 />
    <glyph glyph-name="glyph229" 
 />
    <glyph glyph-name="glyph230" 
 />
    <glyph glyph-name="glyph231" 
 />
    <glyph glyph-name="glyph232" 
 />
    <glyph glyph-name="glyph233" 
 />
    <glyph glyph-name="glyph234" 
 />
    <glyph glyph-name="glyph235" 
 />
    <glyph glyph-name="glyph236" 
 />
    <glyph glyph-name="glyph237" 
 />
    <glyph glyph-name="glyph238" 
 />
    <glyph glyph-name="glyph239" 
 />
    <glyph glyph-name="glyph240" 
 />
    <glyph glyph-name="glyph241" 
 />
    <glyph glyph-name="glyph242" 
 />
    <glyph glyph-name="glyph243" 
 />
    <glyph glyph-name="glyph244" 
 />
    <glyph glyph-name="glyph245" 
 />
    <glyph glyph-name="glyph246" 
 />
    <glyph glyph-name="glyph247" 
 />
    <glyph glyph-name="glyph248" 
 />
    <glyph glyph-name="glyph249" 
 />
    <glyph glyph-name="glyph250" 
 />
    <glyph glyph-name="glyph251" 
 />
    <glyph glyph-name="glyph252" 
 />
    <glyph glyph-name="glyph253" 
 />
    <glyph glyph-name="glyph254" 
 />
    <glyph glyph-name="glyph255" 
 />
    <glyph glyph-name="glyph256" 
 />
    <glyph glyph-name="glyph257" 
 />
    <glyph glyph-name="nbspace" unicode="&#xa0;" 
 />
    <glyph glyph-name="dieresistonos" unicode="&#xa1;" horiz-adv-x="1024" 
d="M674 1190v58l-7 105q0 68 23 92q28 29 80 29q37 0 60.5 -17t23.5 -45t-12.5 -52t-73.5 -115q-3 -6 -34 -55h-60zM519 1193q45 0 78 -33.5t33 -78.5q0 -47 -33 -80t-79 -33q-47 0 -80 33t-33 80t33.5 79.5t80.5 32.5zM863 1193q45 0 78 -33.5t33 -78.5q0 -47 -33 -80
t-79 -33q-47 0 -80 33t-33 80t33.5 79.5t80.5 32.5z" />
    <glyph glyph-name="currency" unicode="&#xa4;" horiz-adv-x="970" 
d="M882 483l114 -114l-123 -122l-114 114q-96 -58 -204 -58q-107 0 -206 59l-116 -115l-122 122l115 115q-60 97 -60 205t60 205l-115 115l122 122l116 -115q96 59 205 59q110 0 205 -58l114 114l123 -122l-114 -114q59 -95 59 -207q0 -108 -59 -205zM553 914
q-93 0 -159 -66t-66 -159t66 -159t160 -66t160 67q65 66 65 155q0 97 -65 161q-66 66 -161 67z" />
    <glyph glyph-name="sfthyphen" unicode="&#xad;" horiz-adv-x="449" 
d="M448 542l-53 -187h-396l54 187h395z" />
    <glyph glyph-name="minus" unicode="&#xaf;" horiz-adv-x="969" 
d="M958 781v-183h-811v183h811z" />
    <glyph glyph-name="mu" unicode="&#xb5;" horiz-adv-x="944" 
d="M91 37q-4 -48 -4 -91q0 -74 14 -151q6 -36 6 -64q0 -48 -33.5 -80.5t-83.5 -32.5t-80 30.5t-30 80.5q0 73 64 199q45 88 56 122t98 332l146 510h239l-186 -649q-12 -40 -12 -54q0 -37 31 -37q26 0 52.5 24.5t72.5 90.5q72 104 126 240l111 385h237l-200 -701
q-12 -41 -12 -55q0 -17 15 -17q35 0 105 141l41 -17q-129 -259 -308 -259q-46 0 -76.5 24t-30.5 61q0 38 21 102q8 24 22 72q-103 -130 -157 -181q-85 -79 -160 -79q-51 0 -84 54z" />
    <glyph glyph-name="paragraph" unicode="&#xb6;" horiz-adv-x="1061" 
d="M482 -335l468 1630h-101l-468 -1630l-324 1l12 42h39q79 0 117 33t64 123l241 841q-53 -4 -81 -4q-87 0 -135 19q-58 22 -90.5 75t-32.5 125q0 149 104 284q103 133 256 156q35 5 205 5h537l-12 -42h-38q-79 0 -117 -34t-65 -128l-372 -1297q-18 -63 -18 -87
q0 -69 109 -69h39l-12 -42z" />
    <glyph glyph-name="middot" unicode="&#xb7;" horiz-adv-x="590" 
d="M295 611q65 0 111.5 -47.5t46.5 -113.5q0 -72 -53 -120q-46 -41 -108 -41q-72 0 -120 53q-41 46 -41 109q0 67 47.5 113.5t116.5 46.5z" />
    <glyph glyph-name="florin" unicode="&#x192;" horiz-adv-x="969" 
d="M744 948h95l-32 -109h-105l-211 -572q-60 -163 -113.5 -265t-116.5 -173q-120 -135 -280 -135q-77 0 -122 30t-45 81q0 45 30.5 72t82.5 27q84 0 84 -71q0 -28 -28 -66q-4 -5 -4 -12q0 -17 18 -17q38 0 79 75q33 62 53 113t109 293l230 620h-110l41 109q64 1 96 30
t76 125q60 133 95.5 187.5t95.5 106.5q129 114 277 114q118 0 162 -67q22 -34 22 -70q0 -40 -25.5 -67.5t-63.5 -27.5q-37 0 -61.5 21.5t-24.5 53.5q0 26 28 72q7 12 7 24q0 23 -27 23q-66 0 -122 -79.5t-127 -272.5z" />
    <glyph glyph-name="quotesinglbase" unicode="&#x201a;" horiz-adv-x="541" 
d="M-47 -193l-18 46q84 30 130 63q62 45 62 90q0 22 -40 68q-47 52 -47 106q0 53 39 91t95 38q62 0 102 -44t40 -112q0 -125 -127 -228q-79 -64 -236 -118z" />
    <glyph glyph-name="quotedblbase" unicode="&#x201e;" horiz-adv-x="909" 
d="M-57 -193l-18 46q84 30 130 63q62 45 62 90q0 22 -40 68q-47 52 -47 106q0 53 39 91t95 38q62 0 102 -44t40 -112q0 -125 -127 -228q-79 -64 -236 -118zM311 -193l-17 46q93 32 142.5 71.5t49.5 81.5q0 23 -41 68q-47 52 -47 106q0 53 39.5 91t95.5 38q62 0 102 -44
t40 -112q0 -125 -127 -228q-79 -64 -237 -118z" />
    <glyph glyph-name="daggerdbl" unicode="&#x2021;" horiz-adv-x="969" 
d="M585 897q11 69 11 104q0 29 -23 149q-4 19 -4 41q0 72 46 129q52 65 127 65q48 0 80 -27t32 -68q0 -69 -45 -127l-79 -103q-54 -72 -92 -163q71 11 96 19.5t125 55.5q27 13 61 13q40 0 66 -23.5t26 -60.5q0 -45 -32 -84q-45 -54 -115 -54q-36 0 -56 8t-97 52
q-23 14 -88 24q-19 -54 -19 -117q0 -106 37 -238q-76 -75 -135.5 -171t-87.5 -187q63 10 89 19t116 51q35 16 73 16q41 0 67.5 -25.5t26.5 -64.5q0 -65 -53 -108q-41 -33 -78 -33q-46 0 -116 39q-52 29 -76 37.5t-64 13.5q-10 -60 -10 -96q0 -32 21 -155q4 -26 4 -55
q0 -64 -35 -114q-53 -77 -137 -77q-47 0 -76.5 30.5t-29.5 77.5q0 46 24 93.5t99 148.5q56 77 76 147q-46 -6 -66.5 -13.5t-118.5 -53.5q-39 -18 -82 -18q-42 0 -70 25.5t-28 64.5q0 63 53 102q40 29 89 29q35 0 53.5 -6.5t86.5 -42.5q37 -19 99 -32q7 70 7 116
q0 102 -26 238q137 142 224 359q-67 -8 -129 -40q-62 -34 -87 -43t-54 -9q-42 0 -70 26t-28 65q0 62 51 105q41 34 87 34q33 0 56 -9t105 -55q13 -7 93 -24z" />
    <glyph glyph-name="guilsinglleft" unicode="&#x2039;" horiz-adv-x="531" 
d="M293 471l36 -382h-63l-160 392l376 406h76z" />
    <glyph glyph-name="guilsinglright" unicode="&#x203a;" horiz-adv-x="531" 
d="M248 471l-27 416h75l148 -406l-389 -392h-63z" />
    <glyph glyph-name="glyph272" horiz-adv-x="573" 
d="M481 242l37 -30q-63 -99 -124 -150q-52 -45 -90 -63t-80 -18q-67 0 -105 38.5t-38 105.5q0 52 20 114l137 420q20 59 20 87q0 23 -19.5 40t-45.5 17q-17 0 -40 -4l14 48l393 55l-231 -724q-9 -28 -9 -41q0 -25 25 -25q37 0 136 130z" />
    <glyph glyph-name="glyph273" horiz-adv-x="1024" 
d="M618 1711q52 0 90 -38.5t38 -91.5q0 -54 -38 -92t-92 -38t-92 38t-38 93q0 54 38.5 91.5t93.5 37.5zM1025 1711q52 0 90 -38.5t38 -91.5q0 -54 -38 -92t-92 -38t-92 38t-38 93q0 54 38.5 91.5t93.5 37.5z" />
    <glyph glyph-name="glyph274" horiz-adv-x="1024" 
d="M566 1301q45 0 78 -37t33 -88q0 -52 -33 -88.5t-79 -36.5q-47 0 -80 36.5t-33 89.5q0 52 33.5 88t80.5 36zM851 1301q45 0 78 -37t33 -88q0 -52 -33 -88.5t-80 -36.5q-46 0 -79 37t-33 89t33.5 88t80.5 36z" />
    <glyph glyph-name="glyph275" horiz-adv-x="1024" 
d="M1110 1699l-432 -236h-41l200 236h273z" />
    <glyph glyph-name="glyph276" horiz-adv-x="1024" 
d="M667 1711q52 0 90 -38.5t38 -91.5q0 -54 -38 -92t-92 -38t-92 38t-38 93q0 54 38.5 91.5t93.5 37.5zM992 1711q52 0 90 -38.5t38 -91.5q0 -54 -38 -92t-92 -38t-92 38t-38 93q0 54 38.5 91.5t93.5 37.5z" />
    <glyph glyph-name="glyph277" 
 />
    </font>
</defs>
</svg>
